<svg xmlns="http://www.w3.org/2000/svg" width="1248" height="1728" viewBox="0 0 13000 18000" shape-rendering="geometricPrecision" image-rendering="optimizeQuality" fill-rule="evenodd" xmlns:v="https://vecta.io/nano"><path d="M3985 8361c-4-100 27-71-12-158-70-152-18-450 25-504 57-71 243-42 327-17 134 39 196 59 243 172 7 67-229 369-401 413-183 46-54 95-181 95zm1582-1233c165 102 312 272 376 472 38 119 130 70 105 162-25 14 34 17-35 14-62-3-7-1-45-17-117-49-382 124-634-59-89-65-39-269 1-357 24-54 57-86 90-126 48-58 50-80 142-90zm-1592 457c-14-138 107-382 360-354 80 9 35 14 79 37 36 18 80 13 123 19 48 51 101 139 121 213 39 148 44 112 28 271-24 12-50 25-72 34-134-88-76-133-439-207 247-34 411 164 477 179-20-118-186-170-283-203-156-54-266-29-394 11zm1279 114c-47-80-39-286 35-402 38-59 57-109 94-152 35-40 88-85 159-91-28 68-67 71-121 114-209 167-160 345-168 531zm-59-3c-62-30-182-110-223-156-7-8-65-103-70-113-66-157 36-233 43-243 8-12 83-247 345-236 54 2 122 36 163 66 2 1 6 5 9 8-33 38-26 19-62 48-27 22-8 11-30 31-246 218-132 474-175 594zm-2300-648c43-95 180-331 260-381l39 21-144 184c-66 77-123 164-154 176zm-1016-442c8-46 174-329 231-505 26-78 16-107 74-148 31 12 68 31 99 47 39 20 17 3 45 31 1 1 30 37 34 43 66 93 63 106 65 241-47 38-93 34-103 125-11 107 36 42-47 138-81 94-303 98-399 28zm-92-138c2-113 34-238 76-321 33-64 107-184 184-215-7 137-153 486-260 535zm3828-1597c-4-63-9-30 12-59 65 24 40 72 33 134-19 170-84 283-233 366-164-54-102-31-184 42-197-14-324-313-315-461 77 12 14 23 116 42 422 76 354-48 570-63zm-1385-892c-8 103 1 119-22 225s-59 576-87 604c-89 47-153-22-145 158 28 62 109 37 150 32 16-2 24-4 41-2 106 9-27 215-65 270-61 89-116 365-207 417-117 16-174-10-218 94 16 106 40 76 138 106-8 101-48 82-110 139-52 47-74 79-121 125-205 199-182 112-295 197-44 34-121 157-149 220-58 129-152 239-233 366l-48-51c0 60-1 51 29 82-15 57-18 114-34 165-19 62-44 58-61 135 80-10 78-40 112-101 64-115 174-240 265-334l208-193c542-517 1071 59 1013 464-9 60-10 75-66 76-11 0-33-6-51-7-32-1-53 6-85 17-244 79-207 274-312 375 64 84 50 166 15 268-36 107-39 185-34 305 82 58 53 156 66 247l73 47c105-24 64-42 122-80 93-61 184-42 347-222l263-322c17-39 23-100 41-147-3-3-7-6-8-8-51-67-54-206-132-315-32-45-92-75-92-136 0-27 13-58 19-89l25-82c150 145 8 61 243 212 3 157 18 259 117 350 50 46 187 152 268 180 65 22 38-3 92 2 35 3 224 73 358 85 92 9 190-63 260-57 62 25 39 40 125 41 95-100 53-119-26-190-70-62-58-365-414-574l-17-70c-125-44-184-123-329-119-93 2-186 45-245 96-34 29-13 23-44 57-68 36-232-84-271-129-151-176-174-499-390-611-52-27-90-30-109-88l-83 5c47-35 143-39 204-51 64-12 133-20 201-29 81-11 368-47 432-36 240 40 323 87 518 191 240 128 446 363 567 600 100 196 183 457 210 716 32 310-54 712-220 942-31 44-56 93-87 143-40 65-139 214-210 250-108 56-271 61-393 17-100-36-55-36-184-45-149-11-148-139-251-213l-80-71c-2-2-5-6-7-8-49-43-139-62-200-94-68-36-73-72-171-53-59 60-6 84-94 109-69-56-25-112-120-147-63-23-141 0-218 1-646 6-460-62-513 173-96 34-127-56-194-94-98-55-348 61-473 80-40 6-87 17-128 24-112 20-86 21-105 1-55-58 60-571 82-654 103-401 290-182 476-201l-6-111c-53-19-157-64-203-73-89-17-142 15-222 22 3-49 23-86 35-122 41-130 22-95 12-117-65 25-18-10-51 77-10 28-21 46-29 78-20 83-34 110-36 202 88-21 237-172 352-56-94 7-64-12-168 15-116 29-179 111-200 234-33 201-122 178-96 498 17 203-5 188-30 348 3 3 6 8 8 10l54 56c109 133-203 118-234 51-29-64-4-114-13-189-10-85-9-179-6-266 9-278-145-378-98-432 32-18-37-16 33-12 49 3 101 88 139 125l25 18c-24-157-46-227 32-457 21-62 35-139 59-202 31-81 67-103 37-192 153-228 29-568-138-753-20-22-39-53-52-70l22-33c115-1 197 179 243 274 89 187 86 213 41 401 80-22 85-92 108-167 22-71 47-92 67-178l112-395c21-63 7-69 18-123 8-41 19-22 38-82 37-115 156-503 132-581l40-30c21-156 244-760 204-847 42-60 41-69 53-149l-60 32-98-209c-24-59-39-109-98-132 9 52 76 243 101 295 103 211 49 255-4 462-36 137-60 311-110 442-9 22-9 17-18 29-59-28-73-108-117-161-40-48-78-128-138-154 9 65 70 173 104 234 132 239 112 224 45 483-19 74-29 178-79 233-68-68-101-213-178-257 27 119 151 335 139 446-8 72-100 414-130 452-4-5-11-7-19-27-10-24-3-10-8-37-6-31-6-40-12-66-46-185-9-300 11-459-19-23-29-41-56-64-35-28-32-6-64-59-27-44-48-125-68-178-35-96-129-257-83-348l117 7 48-61c-43-209-164-37-135-347 7-72 14-153 24-222 12-85-2-153 8-238 122-35 81 17 213 9 103-113 8-175-35-263-33-108 65-208 116-282 29-42 4 3 25-36l70-130c43-85 43-203 141-241 54 26 76 98 170 64 104-62 28-155 88-255 46-77 101-97 176-146 25-16 83-47 105-64 210-161 150-224 242-229-55 262 51 349 156 505 140 209-158 441 80 472 49-41 59-50 122-57zm0 0l-5-38c-82-13-63 23-152 24-4-166 163-274-32-477-20-21-49-55-63-89-9-22-11-39-19-59-45-112-23-157-33-270l-20-66c-54-44-165 96-195 136-28 38-43 58-85 84l-299 223c-94 115-9 403-205 194-103 1-120 29-170 170-59 165-213 346-244 418-30 69-117 99 46 273l-14 82c-60 15-57-5-106-26-47-20-75-16-134-16-13 84-5 183-21 272-19 106-70 409 1 481 52 53 136 83 119 144-66 29-55-21-121 2-122 43-18 246 8 309 29 71 49 157 76 231 31 83 79 102 136 154 14 124-28 231-8 379 13 101 53 169 58 263l-12 76c-66-138-47-231-231-431-86-94 31-279-167-448-79-67-167-141-279-149-47 44-92 64-137 122-60 77-162 259-176 340-5 30 2 46-9 89-74 274 34 317 292 328 254 11 225-55 355-154 139 204 239 404 137 655-31 75-12 85-23 149-17 90-70 133-86 252-15 15-23 25-35 40 0 2 1 6 2 7 25 78-14 217-39 294-82-23-120-96-213-63-21 165 39 141 79 238 48 115 55 278 42 394l36 404c-19 20-39 32-71 53-73 48-77 99-138 154l-105 62c-76 33-79 21-126 74-41 45 9-23-17 15-15 23-13 54 5 88 47-17 159-112 215-145 152-90 209-267 415-248 123 11 204 3 216-116-37-42-20-19-67-48-49-30-24-8-48-50 43-110 291-86 497-155 306-102 269 120 483 68 19-69 5-130 48-182 65-5 153 14 224 18 87 5 154-26 197 17 50-32 159-45 215-13 56 47 8 24 44 81 35 56 143 83 203-79 72 13 90 58 158 87 283 121 173 109 340 260 96 86 83 91 242 108 66 7 112 39 182 56 60 14 145 16 217 10 80-7 120-21 171-60 208-157 465-640 495-922 10-98 15-353 41-417-66-160-50-274-96-426-53-173-147-387-251-533-82-116-275-318-396-389-230-133-498-296-787-245-149 26-310 31-462 60-83 16-139 31-220 43-215 32-89 2-183 8 13 75 70 73 141 91 191 47 328 160 401 338 218 527 299 396 459 532l-32 75c-182 11-235-225-358-275-5 54-5 303-77 319-85 18-11-162-13-274-1-50-49-176-70-223-144-334-539-462-786-323-154 87-159 48-311 212l-110-19c22-52 20-35 53-70 56-60 74-119 152-169 181-115 50 22 248-183 177-183 350-216 604-258 111-18 275-53 388-59 122-7 76-24 165-47 122-31 397 55 501-361 20-80 0-124 83-125 4 179-65 237-92 384 75-16 68-50 102-138 24-63 40-118 47-183 90-39 136-98 206-147 49-34 43-46 76-110 106-193 27-566-100-738-55-75-96-176-149-235l-107-95c-34-43-3-63-13-141-27-23-56-58-112-41-93 28-82 145-127 212-41 61-60 23-38 90 72 34 63-17 101-74 64-96 29-37 47-151 97-23 32 27 128 151 21 27 51 56 70 83 92 128 217 315 226 497-138 140-440 198-659 112-25-215 91-422 86-536-86 31-17-13-63 63-83 136-53 317-104 435-33 76-42 82-28 187 22 175 55 180 127 303 70 119 154 89 250 166 1 273-454 368-670 378-321 15-179 29-445 74-93 16-133 49-236 52 0-98-59-105-136-123 25-163 170 132 346-369 89-256 233-276 158-535l-168 39c-14-38-14-26-24-61 103-57 117 8 152-155 34-159 9-351 63-521 31-99 28-147 5-237l-50 7z"/><path d="M9736 6764c77-23 96-9 177 2l41 474c-50 19-70 31-138 23-26-94 49-87 40-178-4-43-22-36-28-78s5-70-2-126c-47-36-84-29-90-117zm-863-256c57 13 69-27 133-59l108-61c18-10 25-18 37-25 145-88 101-23 217-168 34-42 5-12 43-39 50 27 83-11 128-36l164-79c-9 70 40 58 58 91l14 117c-38-6-274-25-303-24 8 57-13 17 27 54-163 27-173 67-292 124l-187 119c-45 28-33 10-58 56 75-20 18-15 133-75 232-121 196-206 703-189 24 78 118 319 85 409-73 6-38-21-137-24-42 51-57 44-56 131l104 71-1 79c-103 48-432 5-553-15-287-48-207 26-303 120-41 40-41 49-112 34-12-92 48-68-5-209-173-5-98 88-322 166l-260 153c-32 34-11 23-8 35-88 17-206 21-274-10l56-36c38-13 24 1 61-22-133-20-111 20-173 63-29 20-142 53-192 60-30-22-19-11-31-39-57 22-151 83-224 33 107-76 142 8 280-160 41-49 47-83 80-135 34-53 56-93 90-140 68-94-10-194 93-354 50-77 94-247 159-285 34 17 30 22 85 108 278 2-35-200 256-398 327-222 128-93 331-310l67 6 27 119c35 17 59 29 118 28 155-180 41-165 140-238 71-53 156-136 271-132 14 36 35 100 57 138 79 135 141 295 179 452-68 29-31 25-104 67s-42 47-145 59c15-50 23-109 31-178 7-60 45-103-6-144-129 250 39 300-383 560l-201 131zm1143-660c3-53 33-37 85-72 51-33 28-49 104-57l-190 128zm-209-481c-34-31-76-84-5-108l5 108zm-2766-325c20-1 65-2 80-12 10-7 20-23 29-32l15-15c92-9 209-16 290 37l-69 28c3 4 8 9 10 12 3 3 7 8 10 11 7 7 20 21 24 29 5 10 9 26 9 37v40c0 5 2 11 2 16 1 5 1 7 2 12 5 21 3 46 4 67 0 1 0 10 3 8 2-1 2-15 2-18 0-16 1-34 0-50 0-2-2-19 0-7 3 18 2 40 1 58 0 3 0 15-2 17-2 3-4-2-5-4-1-6-1-14-2-21-1-4 0 13 0 13 0 4 0 12 6 13 4 0 5 5 10 2 6-4 5-20 6-26 1-19 4-37 6-56l6-39c5-38 6-78 12-116 1-5 2-11 3-16 59 20 162 102 179 163-26 15-45 23-73 32-21 6-39 12-59 21-20 8-41 18-60 28-10 6-8 11-23 16-7 2-9 2-17 6-31 18-62 36-92 55-11-6-15-9-19-21 0-1-6-17-3-7 5 13 7 21 20 28 17 8-3-4-7-8-14-16-18-46-22-67s1-41 1-62c0-20-4-31-7-50-4-22-3-42-7-64-4-23-6-46-10-70-2-15-5-9-7-11-1-2 5-4 1-5-7-2-13 7-16 13-7 20-4 101-2 122 1 9 3 18 5 27 8 28 1 56 1 84 0 26 14 50 13 78v4 6c0 5 4 6 7 9s13 11 15 14c0 2-7 8-8 9-44 40-82 92-141 113-2-30 3-33 8-60 7-34 9-65 2-99-4-18-7-37-7-56 0-16 1-29-1-45-2-21-4-40-4-62-1-19-1-40-1-60 0-4 1-33 3-34s5 1 5-7c0-6-2-8-6-11 0 0 6 5 2 2-10-10-23-2-26 10-2 8-4 40-4 49 0 34 0 67 2 101 1 23 0 41-2 64-1 16-1 35-2 51-1 20-9 63-5 80 3 13-1 20-4 32-4 16-5 26-7 42-5 41-16 100-46 130-61-34-128-171-132-271-7-182 81-266 102-306zM4574 3134c10-8 53-27 60-29 92-20 36-3 56 13-36 26-74 42-117 15zm-2660-169c0-29 10-11 13-1 3 11-13 14-13 1zm300-215c75-20 171-134 213-196-5 72-128 191-189 232-47 32 31-8-45 26l22-63zm0 0c-55 31-159 134-271 156 130-150 301-397 516-417-57 65-160 120-245 261zm7946 3723c29-148-154-512-121-587 25-26 124-102 155-108 63-13 196-1 265 1-21-42 7-32-80-35a912.1 912.1 0 0 0-128 3c43-102 159-112 236-185 27-26-10 1 22-24 18-14 9-4 30-16 30-17 72-43 98-66-51 16-288 158-435 205 3-54 10-43-8-82-2 3-6 4-7 9l-28 112c-57 34-102 74-165 91-22-21-118-240-127-273l46-21c54-22 80-48 121-94 128-143 259-1 577-24 24-2 48 0 70-7 72-24 22 6 37-39-55-28-139-2-215-2-132 1-325-100-454-23-55 33-69 96-117 142l-79 2c-29-74-13-62 10-129 44-12 67-12 92-36-51-61-152-50-221-74l-119-222c-39-71-101-152-114-231 204-34 389-109 544-191 3-118-33-74-64-165 154-91 148 4 307-7 16-34 172-120 216-146l76-45c11-7 23-13 34-20 24-13 53-22 79-32 10-4 20-7 31-11 6-2 41-17 43-20 5-7-15-12-4-13 9-2 40-18 40-25 1-14-36 5-42 7-20 8-40 10-60 18-16 6-29 12-44 20-18 10-37 16-55 26-10 5-19 10-29 14-47 20-96 48-141 73-34 19-69 38-104 53-79 33-49 47-117 76-62 5-69-108-256 11-19 99 36 108-1 138-12 10-109 54-141 75-157 105-147 58-331 99s-219-71-325-93c-200-40-116 189-117 235-70 3-87 23-154 6-80-20-73-31-166-36-73-4-285-28-329-74l58-46c-13-31-5-22-26-43-1-1-37-26-42-29-79 24-65 46-105-22-39-66-141-86-181-23-24 99 18 70 21 160-125 8-112-53-162-106-43-46-248-145-324-230-53-59-354-217-445-263-66-33-40-19-87-52l-440-130c-1 82 48 151 68 224 43 153 21 126 9 252 96 51 55-6 109 106 59 120 101 251 176 362 15 23 25 38 36 65l-218-314c-32-42-43-70-115-63 23 77 29 57-17 153-55 114-106 186-201 259-75 57-39 80-159 81 28-61 128-104 234-298 64-118 113-266 89-419-30-190-96-425-230-558-182-180-372-212-477-306l-288-236c-120-106-257-186-409-238-25-9-71-23-99-38-62-34-99-93-122-152-129 35-25 50-218 44-50-89-102-178-219-195 54 123 252 212 137 387-72 2-172-18-201 60-90-96-6-132-115-220-76-61-213-33-322-34-354-2-1008 3-1346 40-75 8-88-5-144-5l-501 31c16-69 20-25-3-76 97 36 143-63 217-106 145-83 160-255 223-273 91-25 228 5 307-2 46-4 15-12 64-21h1077c89-16 299-11 397-7 93 4 291-27 363-17 101 14 48 16 159 6 121-11 274 2 387 14 18 2 138-17 177-21l-40-53-2908 31c-138-14-139-19-242 47-38 25-51 18-89 50-80 68-127 149-208 223-77 70-63 56-119 157-40 72-92 70-67 198 61-3 76-16 124-49 122-82 276-60 432-62 214-4 452-40 661-41 224-1 462 7 678-12 90-8 222 18 337 7 124-12 230-3 353 5 21 49 50 173 87 203 60 48 146 66 242 56l87-76 14-181c311-49 228 90 390 143 204 68 195 61 360 178l300 238c115 66 401 234 479 320 257 284 335 638 136 980-111 191-235 176-220 327 136 19 144 22 246-70 38-34 39-46 66-72 99-97 133-128 184-263l27-48c21 30 30 42 47 74 18 32 32 45 47 76 49 103 27 65 104 137-6 51-22 101-55 141-12 14-17 20-25 37-5 10-9 16-14 25-3 6 2 8-3 12-4 3-10 1-10 8 0 11-8 26-10 38l-1 4c-3 20 0 43 1 64l3 34c12 125 43 297 169 356 145 67 56 13 131 129 108 166 243 259 437 316 123 36 84-22 177 83 65 6 91-9 131-28-11-85-13-165-105-143 13 63 37 46 46 107l-40 19c-87-61 24-83-170-104-116-12-302-110-372-200-181-235-99-249 99-414 82-68 193-143 304-138 99 148 70 126 126 317 62 213 14 186 27 386 80-15 71-84 67-168s-5-133-21-213c-25-119-61-273-138-341 5-143 18-105-65-193-49-52-75-97-141-123-168-65-246-72-425-42-119-105-206-457-303-549 1-52-46-293-60-334 237 19 381 123 559 232l256 144c81 54 143 137 226 188 70 43 89 42 153 109 54 56 99 92 181 84 95-126 7-98 23-206 110 4 82 98 152 166 138 136 342 84 525 137 178 51 113 16 278 3 54 92 266 359 273 460-38 21-85 45-122 62-90 44-159 113-190 212-21 65-28 91-89 104-67-70 3-100-108-167l-100 13c-49 96-116 184-208 235-64 35-45 40-84 70-50 38-124 69-158 135-26 50 29 304-58 279-19-6-24-18-34-40-24-54-16-59-46-105-137 27-192 242-254 350-31 55-35 27-54 100-52 205 67 81-104 356-18 30-36 54-54 85-19 33-34 75-53 101-93 126-257 88-354 105-55 10-78 11-131-3-195-54-501-278-636-426-50-55-41-25-91-63-63-47-92-108-147-161-43-41-114-93-157-151l-321-294c-49-41-126-101-191-124 25-118-22-30-178-106-82-39-156-64-256-83 17-48 17-4 28-73-75 16-68 48-129 60-90 17-100-27-129 74 236-46 456 69 653 193l404 305c31 25 17 26 35 53l182 174c190 235 608 570 877 647 630 180 633-8 921 31 134 18 203-13 275-73 120-99 232-97 338-201 41-40 53-71 91-96 111 61-31 125 54 210 35 35 3-5 32 31 261-52 79-252 416-171 107 26 158 25 267 37 62 7 87 2 143-5 22-3 51-6 73-5 207 9-79 184 69 253 171 79 171-128 430 1 70 35 142 64 217 90 341 117 84 175 85 270 35 111 91 96 214 99 44 44 12 29 70 58l-18-85c-96-37-124 27-205-26-48-73 23-89 62-138 40-51 24-111-25-144-93-62-252-96-326-135l-1-258c95 3 188-2 196-110 2-25 3-38-4-52-18-35 0-12-40-27l19 115c-63 14-50-24-65 27l-79-2c-32-27-98-105-161-74 51 55 157 52 82 334-51-4-71-15-115-28-54-16-90-9-149-21-24-262-48-499-102-759-32-157-261-771-350-941l-153-277c-59-93-100-167-164-266-38-60-192-199-125-263 14-14 19-48 113 14 154 102 206 68 303 250 31 58 40 46 59 108 19 60-5 21 29 65 15 19 27 27 40 51 12 24 15 42 28 66l215 414c44 97 62 186 96 274 46 121 133 362 158 488 3 13 4 27 9 38 8 22 15 25 17 27z"/><path d="M4499 12120c41 4 25-12 32 33-46-9-26 7-32-33zm-1378-115c-48-76 33-85 28-247-7-229-109-387 63-464 168-75 123-71 158-146l240 195c-61 151-121 86-257 136 42 34 55 18 108 28-10 50 14 9-25 56l-74 83c-50 49-131 132-155 199 50 0 34-2 79-47l197-202c-16-59-15 29-13-50 69-51 86-110 171-154-23 116-89 99-72 290 2 17 3 35 9 52 14 45 11 23 22 36 54-104-15-257 92-360 63 19 185 133 242 170 89 57 215 118 243 154-71 40-57 62-162 91-42-75-30-108-144-114-237 363-129 149-503 214-81 14-174 115-246 81zm61-923c-24-60-9-72 32-106 36 13 103 77 118 115-65 6-99 15-151-9zm491-145c86-20 271-60 363-49l-168 215c-65-22-115-67-163-113-35-33-13 6-32-53zm2439-610c-16-22 27 37 0 0zm-3155-319c132 1 371 144 508 0 59-62 129-83 127-24-3 80 5-36-5 23-21 120-10 85 42 167 121 188 92 64 122 154-54 55-172 63-243 109-61 40-115 131-155 178-72-28-371-462-396-607zm3013-157c0-31 14-20 18 0s-18 18-18 0zm-694 736c14 1 220 109 257-63 15-67 18-273 10-342-6-55 38-96 39-163 4-291-66-177 91-479l147-268c173-292 303-324 429-587 21-44 41-91 67-124 16 166 2 283 3 443 0 74 5 142 2 215-1 29 1 82-3 104-7 33-23 36-33 72-19 67-20 117-50 183-74 159-245 156-289 249-65 141 136 84 173 79-36 120-72 157-81 302-11 180 179 269 152 114-27-157 29-412 150-457 23 262-20 609-22 875-1 196-47 442-172 592-27 33-26 27-45 62-30-9-22-17-61-5-54 17-317 178-360 246-124 202-208 168-326 177-238 18 17 115-297-37-52-25-424-166-470-228 43-32 34-32 102-44-3-50-13-28-7-84 18-159-2-198 74-213 49 51 15 78 62 148 187 33 183-130 377-315 58-55 142-107 160-195 20-101-73-161-75-259zm292-1167c28-37 28-43 71-81 35-31 35-52 98-54-32 123-89 171-137 277-44 96-91 193-88 320 4 156-28 227-25 384 2 121 7 258-75 319-102-11-32-71-154-72-134 115 84 212 19 353-21 40-136 112-260 283-31 42-33 31-52 54-37 46-35 95-106 104-43-37-22-25-39-77-10-31-2-18-19-44-24-36-19-20-35-33-112 13-119 73-139 175-27 140-21 132-107 196-29-16-65-42-93-57-47-25-257-111-272-140-20-145 62-325 66-482l-48 73c-21-50-41-22-72 0l28 52c-35 96-6 195-28 307-42-7-128-72-165-104 1-74 11-71 43-117-32 30-11 17-61 32 59-155 171-177 190-271-67 10-99 41-166 43 67-65 220-86 306-132l27 48c60-34 131-116 159-183-88 38-86 117-174 128l273-319c52-52 69-45 95-112-83 37-60 47-113 109-45 52-121 102-203 198-174 202-113 99-381 216-118 52-177 62-302 91l-116-124c-97-75-203-117 33-306 57-46 175-56 242-81 69-161-64-122-95-205 47-31 371-91 453-111 384-91 234-184 337-222 7 72 0 135 97 131 89-4 217-124 287-174 38-27 103-58 134-97 46-57 6-16 64-58 106-77 75-121 172-168 172-83 81-38 173-57 41-8 63-51 127-27l19 9c1-3 7 3 11 4zm116 4668c36-39 20-26 46-62 23-30 85-65 104-92-21 85-79 115-107 212-29 101 21 180 45 266 55 198 6 439 216 436 28-54 34-69 115-66 24 131-141 401 41 441-6-34-40-181-36-220 7-70 116-238-34-287-90 63-39 97-161 87-11-50-28-74-37-112-43-186-6-117-90-370-27-81-41-176 16-254 57-79 100-98 86-223-34-66-119-18-243 2-22-133 34-211 48-336 7-70 12-326 25-357 34-80 188-71 231-153 26-48 9-107-26-126-66-37-70 22-140-8-55-47 40-134 88-173 101-81 145-261 227-358 30-36 42-33 74-64 348-335 160-1285 200-1820l21-755-134 188c-19 30-15 44-33 73-125 193-65 225-107 310-23-11-18 30-38-37-16-55 16-140 31-186 24-74 64-130 86-212-57 14-92 50-165 44-6-136 135-103 231-265 220-372 63-964 108-1366-71 37-46 86-65 165-59 247-356 725-627 793l5 27c-73 79-193 118-296 151-424 139-172 161-562 391-75 44-185 201-283 158l-7-97-77-25c-165 145-10 146-351 216-47 10-94 5-136 15-75 19-261 108-330 60-63-75 67-116-43-201-116-24-151 56-209 96-84 58-272-3-364-33-151-48-284-14-384-45-13-68 66-53 64-189l-53-38c-85-39-100 3-176 11-90 9-166-28-227-84l-101-84c-99-57-177-166-309-152 20 70-25 29 70 68l155 91c32 26 40 26 73 51 119 92 132 121 309 168l60 173c-76-2-122-30-191-61-159-71-207-256-403-273l-41 38c9 42 19 53 56 85l189 207-29 29c-19 19-10 2-23 32 15 20-2 26 37 24 10 0 37-13 44-15 39-15 46-11 77-36l-126-104c-2-3-5-7-7-9l-130-187c89 19 197 148 315 236 57 43 314 145 374 128-19-50-36-39-86-51-22-84-142-305 86-235 24 95-104 114-7 224l19 17c249-6 206 6 302 198 83 165 259 348 362 499 42 61 16 19 63 60 40 35 20 36 49 74 56 73 117 104 191 179l410 328c61 46 77 76 143 104 122 51 211 112 322 170 70 37 81 57 160 86 55 20 96 45 127 92 1 2 4 10 5 8s3 5 4 8c103-12 265 84 364 115 13 79-13 78 53 116 42 25 57 26 72 77-88 81-216-3-323-30l-27-59c-57 59-67 67-169 72-96 5-185 95-228-13 69-73 203-21 225-170-78 5-21-4-74 41-42-26-92-36-134-60l-366-202c-81-50-149-100-234-151-330-199-609-450-834-764-17-24-4-5-21-26-44-57-67-106-125-151-11-134-43-78-116-145-186-169-96-229-426-333 9 63 31 56 99 93 60 33 67 50 106 93 26 29 35 19 56 50 96 139 217 234 314 379 53 80 117 126 178 209-3 3-6 7-8 9s-6 6-8 9c-92 90-82 176 17 194 85 15 67-50 123 34-83 175-390-33-205 605-76 83-55 222 7 295 94 55 244-178 441-83 42 20 3-11 46 33l17-17c2-2 6-7 7-9 78-85 154 35 197-80 19-50 43-118 71-164 88 33 38 62 92 144 112 11 153-75 231-144 60 13 52 25 94 63 73 64 240 72 299 143-49 41-106 69-160 104-2 72 15 99 59 148 119-19 138-66 234-71 29 62-1 25 43 54l8-62c138-33 86-41 214-11l-188 330c-8 11-39 57-52 70-122 125-231 163-125 330l171-16c18 93 49 126-62 146-92 17-129 6-174 71-33 47-40 77-50 131-1 5-2 9-3 13l-9 34c-12 52-27 120-18 185l-131 261c28 46 15 11 40 62l-29 21c-23 22-2-8-17 25 80 144 150-17 247 10 21 43 1 73-31 118-17 24-213 201-168 331 1 3 116 130 102 311-9 118-77 179 62 269 102-1 117-22 167-72l137-106c-7-40-10-46-20-82-91 42-135 147-254 170-39-58-14-203-24-298-12-111-71-192-64-280 11-152 75-147 127-225 58-86 42-174-69-207-78 28-52 66-127 50-2-19-2-13 0-30l23-94c129-245 30-63 87-238 37-116 3-296 121-354 40-20 75-29 114-40 49-13 90-64 93-64l-8-133c-75-45-115-21-205-25-2-85 91-162 138-222 205-261 179-420 324-394 147 26 191-4 215-129l-110-75c16-153 178-62 297-121 49-24 62-55 92-77l144-103c0-4-1-9-1-11l-5-19c-1-3-9-13-11-18 54-15 16 2 87 20 26-20 62-29 82-51 33-35 12-41 41-81l89-37c31-17-6-3 41-21 79-31 90-96 157-146-19 115-102 111-107 229 98-47 101-245 178-271 21 156-54 196-72 315 57-20 30-21 73-43 21 59 2 126 9 198l-11 169c-4 94-88 224-97 233-54 52-7-33-57 53-51 88-128 156-186 259-34 61-31 93-77 154-27 36-74 75-113 100-32-28-40-70-62-106-2 3-5 7-6 10l-6 32c0 2 5 33 5 44-23-46 4-24-47-19-3 86-10-8 23 75 5-1 11-4 14-6 3-1 9-5 12-6 53-23-11-20 20-9 36 14-18 113-5 146 51 88 96 32 167 49 61 105-105 95-184 167-91 84-54 207-56 347-2 126-160 427 9 471 62 16 98-23 144-43-107 175-155 194-281 347-134 163-113-111-261 0-40 30-47 88-62 139-42 134-158 90-240 162l79 22c222-2 197-210 262-282 75 2 60 29 92 89 131 1 206-164 286-250zm1409-1142c37-18 70-19 125-9l-15 81c-101 0-77-16-109-71zm338-1606c-1-46-1-53 29-72 9-6 31-15 46-16 59-2 41 9 52 14-19 70-55 78-127 74zm1432-233c6-81 0 0 50-77 45-68-3-63 67-90 47 81-28 165-117 167zM6504 8328c58 112 56 202 59 356 2 133 13 284 5 415l-5 600c-1 106 8 98-28 169-4 36 148 215 158 417 70 8 97 42 77 118l-33-89-68-12c-13-20-23-42-33-56-38-52-84-140-143-100 23 40 15 16 53 48 35 56 2 484 4 599 1 44 17 125 22 175l41-2c23-36 4-117 8-162 7-91-19-95-17-146 6-121-7-213-4-340 61 19 42 33 78 87 136 198 209-6 97-158-44-59-54-14-77-106-38-154-109-273-87-440 11-89-21-219 46-275l-26-19c-33-33-13-649-13-747l170 314c55 113 104 213 173 304 27 35 24 39 48 75 35 53 27 16 60 63 60 85 136 198 216 262 166 131 90 77 183 169 84 84 82 132 129 238 53 117 126 180 134 341 11 213-39 188 36 413 38 114 3 275 137 307 61-28 56-78 129-64 11 99-35 131-47 258-67 19-72 11-131 39-246 119-180-188-348-178-80 5-45 13-70 37-50 47-84 50-109 136 62 22 95 55 137 106 33 40 87 82 111 130-59 47-211 99-303 86-3 3-7 7-10 9l-28 24c-137 101-298-249-362-319l-46-77c-22-37-19-9-63-58-7-8-30-35-36-43-36-51-61-175-85-239-4-1-36-10-37-10-20-3-21 0-35 3-28 128 14 479 19 624 19 520 167 505 294 741 54 100 70 114 140 198 57 68 99 107 142 195 99 198-21 128-105 149-119 122 130 181 182 238 56 85-7 429 44 555 25 61 53 173-41 134-84-35-97-25-161 29-7 195 199 302 90 497-112 202-79 399-121 447l-38 33c-2-4-7 9-10 14 65 7 48 13 84-27 68-74 57-200 74-296 31-181 101-129 91-396 40 28 65 42 98 83 29 36 42 74 73 112 65 83 96 146 217 126 18-45 12-66 59-95 97 42 27 132 112 212 55 52 143 65 221 86 287 76 221 194 451 178 22-75-5-177 3-275 11-128 37-121 82-223 114-260-137-268-126-417 119-14 60 42 189 18 10-95-19 7-9-85 7-69 18-20 32-78l-60-45c-24-104 2-135-77-182-10-108-42-113-6-218-21-43-35-87-59-137-48-98-259-96-271-184l-5-67c-59 72 9 121 66 155 35 21 14 15 52 38 239 142 97 254 222 516 41 86 93 159 46 246-81-10-78-33-159-5-3 129 38 111 78 193 30 62 54 122 40 189-36 177-96 182-93 409 1 105 12 162-86 79-20-17-41-37-66-57-36-28-40-22-79-45-101-60-250-93-362-132-43-119-14-127-100-228-122 13-59 40-128 101-120-21-182-167-252-252-61-74-250-113-198-272 77-33 176 85 204-42 13-60-21-190-30-260-19-150 26-411-80-509 30-105 38-96 15-176l3-123c-68 41-38 9-144-155-29-44-80-75-124-138-143-202-110-175-111-363l-52 85c-50-26-14-2-53-46-48-52-79-109-99-176l-38-238c-4-41-8-31-3-77l40 9c-79-147-49-125-44-245 2-50-44-209-18-276 42 56 50 124 94 181l123 154c50 66 180 258 257 296 168 85 279 19 420 134 139 113 301 144 298 241l-129 63c45 138 117 86 244 87 147 2 111 87 152 181 21 48 114 145 152 186 36 38 38 59 67 102 38 55 50 25 41 128l-91 44c30 19-36 9 48 17 12 1 40-5 47-4l58-55c2-120-11-137-70-195-26-25-39-50-65-73-108-96-149-336-264-381-89-34-179 59-273-17 20-65 46-36 122-56 55-198-140-127-226-252l310-129c86-33 207-135 283-144 98 88 110 271 283 234 55-42 47-74 55-146 171 5 109 148 171 260 30 53 172 143 240 174 50 23 390 259 431 147 30-81-43-118 80-115 52 43 72 136 143 160 67 23 176 27 255 39 148 23 310 161 444 147-16-62-4 0-23-54 39-17 27 3 39-43 21-81-76-176-71-392 3-132 15-344-137-365 2 67 61 73 73 381 5 126 60 298 61 396l-552-151c-154-24-127-102-198-154-123-90-141 92-178 132-175-65-315-175-472-268-203-120-73-194-210-340l-95 1c-50 58-26 82-68 146-81 8-91-33-130-72-50-50-63-62-92-122-12-84 336-294 415-368 37-35 86-94 137-126 124 52 247 337 277 462 13 54 28 142 45 178 28-39 11-172 4-232l-35-200c-7 11-36-26-15 69-59-15-38 10-63-73-25-80-126-140-114-224 98 8 160 101 280 120l-62-48c-24-10-137-56-146-87-2-5-6-6-8-9 2-14 56-186 66-202 13-23 97-90 132-128 79-85 159-186 223-279 66-1 95 20 149 48 40 21 87 39 95 104l-153 53c10 204 253 116 368 332 42 79 86 148 133 220 60 93 89 122 146 191-4 108-7 29-40 104 101 16 132-26 145-104-18-21-19-21-44-43l-18-15c-2-2-6-5-8-7-37-37 30 55-20-24l-218-324c-28-47-25-75-69-114-34-30-75-40-123-61-96-42-205-33-201-151 73-8 98 2 140-41 71-108-152-168-222-220l343-551 190-410c31-77 48-139 78-214 93-231 70-117 100-346 6-51 16-18 18-64 3-70-11-33-19-42-42 61-72 234-96 318l-115 284c-21 55-41 103-68 147-32 50-34 78-61 139l-449 765c-124 140-240 298-379 413-63-15-20-18-74-40l4 78-143 154c-43 55 16 28-61 93l-115 101c-57 66-134 101-195 158-75 70-172 128-249 182-108 75-517 289-595 272-22-5-28-49-197-87-76-17-34-11-56-31 97-23 188-70 281-106 57-22 120-9 176-24 52-13 83-32 140-44-16-14 35-46-75-16-129 35-216 37-316-65-29-30-52-60-62-114l110-43c72 36 111 100 215 94 61-3 71-22 113-42 102-47 110 17 258-111l703-557c36-34 69-47 89-120-101 33-151 146-255 186-61-39-88-78-147-104 33 60 71 65 102 132l-28 35-6 9c-12 18 0 9-22 39-22 29-464 387-560 399-34-79-4-83 22-137l14-106c-34-127-126 31-211 36-18-56-21-83-25-152-4-76-18-86-33-150-27-113-18-228-21-342-3-117-50-197-89-288-38-90-62-154-97-244 34 21 38 17 76 45-34-47-54-68-85-110-56-76-35-22-104-66-50-32-130-120-181-172-113-114-225-242-316-375-77-112-125-229-196-343l-170-351c-17-45-17-85-33-135-20-62-26-79-89-85z"/><path d="M9954 3017c-59-2-63-10-90-43 8-32 83-26 90 43zm-2301 452l-65 134c-25 57-65 71-127 63-383-47-284 139-643 44-332-88-464-128-745-422l-318-267c-39-33-68-46-78-99 138-2 289 1 428 10 40 3 65 17 107 19 44 1 71-13 108-16 83-7 127 14 162 61 0 0 394-20 375 74-13 8-8 21-93 16-112-6-107-53-222-70 13 73 16 69 92 95 442 149 205-153 529 71 39 27 394 180 490 288zm2292-553c-82-6-38-11-89-53l-46 44c-158-170-235-67-545-91l-1284-6c-200 2-461 12-656-5-13-32-15-57-31-76-28-34-91-34-93-4 0 7-5 9-5 12-3 22-6 10-1 41 26 167 253 176 365 239 42 23 47 45 100 67 81 33 263 122 310 203-34 31-193 138-249 124-64-41-46-53-120-81l-272-143c-41-27-78-54-130-85-53-31-62-46-119-81l-142-73c-59-41-45-40-123-78-56-28-88-77-124-91-33 55 13 82 33 137l-208 20-23-48c-104-9-202-39-310-29-79 7-263 2-354 1-116 0-202 32-295-17-41-21-70-45-103-66-61-40-36-66-95-87-55 112 145 161 207 207l347 313c51 49 57 74 121 110 98 56 144 149 252 209 82 46 184 137 275 169 107 38 47 51 131 84 169 69 549 158 744 135l193-39c54 26-24 19 68 27l62-82c36-45 43-32 76-62 27-24 114-120 116-161-51 11-56 49-90 80-73 67-266 186-366 199-201 26-516-26-656-100 81-1 136 25 226 12 55-8 145-34 195-51 138-44 328 6 388-105 75-139 110-165 265-226 124-49 201-218 317-150-24 57-83 108-36 188 178 34 140-175 363-187 87-5 191-8 274-24 77-15 158-50 231-27 7 87-25 85-31 175 180 134 190-164 470-58 352 134 438 35 525 159-26 40-157 152-51 210 115 63 182-112 415 49 48 33 10 28 58 65 38 30 58 19 90 49 39 37 62 64 111 87 16 7 27 14 41 22 24 14 40 19 65 28 12 4 17 7 27 14 15 9 29 14 46 19 18 5 36 9 54 14 5 1 32 9 34 3 1-1-1 1 1-2 8-8-16-16-20-18-24-10-46-20-70-29a317.4 317.4 0 0 1-42-19c-18-9-34-16-53-24-26-11-47-30-70-46-10-7-19-14-28-21l-1-1c-200-170-346-343-513-265-39 18-97 39-122 4-18-66 153-146-2-241-57-35-254-34-344-58-83-22-221-100-308-81-92 19-177 149-256 121-25-87 145-274-200-194-220 51-408-35-574 150-53 60 4 52-87 70 18-102 64-44 50-172-97-78-157-45-229 15-39-17-83-57-127-84-127-79-131-98-288-173l-107-61c-33-18-13 1-30-30 136-67 522 22 699 9 61-5 72 7 130 9 105 3 172-28 277-31 205-6 396 13 585 15l292-16c490-8 206 112 449 181 165 47 83-91 101-152 22-31-15-26 56-24 30 1 68 6 100 7 74 1 525 35 560-36 9-66-4-83-28-125-36 34-12 2-36 48-15 28 1 13-26 46-155 17-357-26-513-7-317 37-135-116-372-139 21 123 181 84 198 244zm-1100 7259c20-51 58-54 105-85 6-171-110-112-207-122-98-11-210-42-301-51-140-15-148 65-294-1-46-21-73-43-119-65l-369-154c-84-57-212-169-283-255-44-54-45-44-86-83-83-79-34-91-152-187-60-49-290-473-328-563-41-96-88-305-120-403-30-94-56-344-75-462-12-69-24-62-36-136-52-313-138-441-149-537 59 14 204 132 267 175 67 47 360 236 422 253 254 73 241-53 437 224 29 41 75 85 116 115 46 34 102 45 163 54 159 23 209 60 241 201 34 147 108 135 222 227 62 50 78 64 120 110 44 47 77 65 154 69 107-132 21-100 53-184 15-18 46-13 63-11 118 247-84 207 376 359 140 46 306 171 398 132 50-22 47-60 61-112-29-57-49-31-29-118 207-13 12 161 398 196l-94 322c-23 53-20 15-41 87-64 224-249 656-373 808l-139 240c-105-7-75-38-216-11-79 15-147 34-183-32zM6260 6864c19 64 69 121 98 182 32 67 46 118 74 187 72 180 75 391 96 444 43 105 43 91 50 223 12 217 89 554 188 737l184 355c169 293 239 307 414 508 117 134 226 169 254 284 2-3 5-7 7-9l26-22c4 2 8 4 11 5 2 1 8 4 11 5s8 3 11 5c69 27 151 55 221 37 47 85 196 156 306 206 70-7 86-28 165-38l510 65c89 87-89 25-75 190 117 46 520-16 339 133-38 32-41 41-60 78-77 148-88 40-114 159l278-317c33-40 30-68 54-99 27-35 27-15 62-77 27-46 71-135 101-175 36-47 25-31 54-100 56-129 133-227 153-278 28-70 31-175 52-238 30-90 78-57 71-198l55-93c12-39 14-61 25-100 78-293 159-111 253-205-125-15-268 18-381-22-152-54-72-128-219-179-106-4-73 89-56 134 11 28 6-8 8 35 11 174-291-35-477-92-84-25-190-56-225-112-44-73-33-299-202-194-30 218 8 225-232 12-49-43-105-72-154-123-86-89-44-84-95-181-95-181-269-129-361-192-120-82-148-153-206-209-32-31-43-32-67-74l110 10c-124-78-302-33-417-86-226-104-417-222-617-366-52-37-102-59-145-101-76-73-85-99-138-113z"/><path d="M7027 2406c-56-30 16-57-115-31l4 51c54 32 875 22 1049 19 68-1 56-13 107-17 72-6 183 4 261 2 154-2 314 5 476 3 79-1 147-21 219-10 298 44 294-7 457-2 90 3 168 10 260 2 59-5 635-9 689 7 82 24 44 76 144 121-4 80 5 110 65 144-3-61-1-59-22-114-24-60-15-42-52-87-196-237 5-111-577-132-146-5-316-23-459-8-204 21-941-4-1102 14l-838-5c-66-9-56-2-115 8l-314-10c-202-21-121 8-139 45zm-230 11904c-10-38-41-91-70-130-58-77-27-50-68-132-13-27-38-53-44-64-74-134-75-234-78-412-3-192-12-116-19-186-3-38 11-131 11-184-1-94-22-56 10-149l57-4c-13-29 16-5-33-43-80 22-76 37-79 135-1 54 11 148 6 171l-52-34c-8 113-14 318-7 432 16 276-1 205-75 331-76 129-318 383-355 511 54-17 84-73 118-119 41-58 60-67 109-121 91-100 119-183 147-206 153-130 10-23 78-167 36-76 2-304 27-453 35 67 15 215 20 303 8 119 84 150 93 246-31-29-16-22-58-42-76 55-37 171-63 287-14 63-31 61-31 154l1 169c1 114 15 236 13 338-1 98-10 228-7 318 21-7 26 3 41-41 18-52 13-190 14-246 3-111 14-208 15-323 3-312-21-240 17-605 79 38 137 195 261 267zM3249 5562c-2-109 140-563 179-694 31-106 233-310 294-351 50-33 94-52 107-108-62-35-184 84-247 137-28 23-42 24-70 43l-19-91-35 142 33 43c-40 22-13-5-42 39-3 5-21 37-27 50-53 105-210 732-215 837l30 31c-70 76-89 146-112 265-73 379-106 266-29 338-113 85-109 82-153 265-26 109-70 241-72 357 11-14 12-7 25-34l98-350c72-201-14-136 205-269 40-24 24-27 46-51 43-46 100-27 142-90-58-24-95 15-147 40-48 23-109 51-158 60l154-449 191-193c126-98 13-45 227-157 87-45 80-31 105-85-10-4 13-38-70 9l-197 114c-109 62-169 132-243 153zm4469-1660c47 30 297 63 370 47 84-18 200-110 294-122-48 83-127 41-114 111 7 2 451 40 497 41 105 3 137 34 238-8 48-20 158-58 204-65-33 39-34 12-69 58l55 37c5-7 9-16 10-14 11 27-1-21 41-51l358-229c47-29 107-63 111-124-65 16-189 125-270 167-97 50-204 85-318 127-167 62-159 73-360 54-101-9-346 4-418-29l61-49c71-44 306-195 332-251l67-162c-51 22-40 45-89 94l-160 131c-51 39-420 227-472 233-39 5-143-7-184-11l-140-6c-42 5-28 5-46 20zm-1048-15c39 50 97 53 157 61 206 28 356 66 585 65 139 0 221 43 321 167 55 68 75 55 114 131 33 66 72 116 127 137l-186-324c-24-37-51-52-65-95 69-29 440-2 521 54 294 206 166 138 342 288 51 44 66 75 104 111 106 101 45 81 122 98-19-108-407-492-419-517l-13-43c-73 7-49 19-77 51-133-110-462-91-658-94l2 56c-111-52-56-53-220-56-300-4-727-101-727-101-27-1-18 4-30 10zm1629 3706c18-60 128-148 182-192 63-51 133-103 159-187-73 45-108 88-182 148-51 41-143 110-198 132 4 4 10 8 12 11 2 2 8 7 10 10l4 28c-31 64-17-25-34 72 214 49 284 14 305 78-93 20-240-44-351-50l-16 47c-110-99-111-64-261-108-87-25-223-49-319-51 71 57 357 79 451 106 77 22 192 216 232 289l101 177c22 38 2 18 34 43-36-178-176-349-182-466l382 64c-17-61 1-2-26-55 52 0 89 16 135 23 158 24 54-36 189 23 63 27 232 53 304 57l-285-94 144-77c185-136 315-140 344-269-69 24-65 45-132 81l-244 141c-208 120-189 134-434 80l-323-63zm1861-1121l-1 156c84 46 56 67 110 118 40 38 19 23 67 35-41-140-203-155-79-279 52-51 234-70 210-246l-138-58 4-82c102-75 258 19 313-193 24-93 18-181 77-292 46-87-1-47 29-79 33-36 186-43 126-213-67 4-108 124-158 197-90 131-70 115-111 259-28 99-36 201-141 225-142 32-192 10-182 191 65 38 77 32 132 89-29 64-152 155-216 193l-43-21zm-913-2482c60 26 104 18 179 22 57 3 124 31 161 35l-228-3c53 63 119 45 251 45 92 0 182 8 277 7 33-49 13-55 69-48-29 26-17 15-25 58l185 77c-42-70-58-29-89-96 81-2 449 5 489-17-19-35 32-11-28-29l-217-18c-51-2-63-5-112-4-44 1-76-13-138-12 34-65 54-39 95-119-103 27-149 143-391 113-98-12-384-43-477-11z"/><path d="M3620 3896c-1-7-3-15-2-23 8-54 11-23 27-35 2 3 5 7 6 9l-21 68c-2-3-5-7-5-9-1-2-4-7-4-10zm-6-123c-44-76-33-114-92-189-9 17-33-42 16 87 14 37 24 45 38 99 53 202-114 431-125 663 70-105 36-12 80-185l18 21c-32 113-11 59 6 81 33-115 66-217 89-340 20-106 26-73 84-132 23-24 18-33 48-61 53-50 43 7 50-63-72 16-64 56-101 75l-30 5c-2 0-7-2-11-2l149-623c2-98 8-13-19-45-53 78-60 209-89 312-15 54-34 98-49 150-28 94 6 101-62 148zm4817 252c116 77 527-68 867 174l347 238c70 10 31-6 44-13-29-50 2-8-45-48l-105-80c-39-36-16-32-48-59-74-62-199-101-163-185l-100-2 29 60c-137-59-196-82-383-91-96-5-378-45-441 4zm-459 6080c162 69 77 41 298 59-75 32-107 20-193 32 7 68 52 82 98 126 2 2 6 5 8 7l34 42c62 68 160 126 268 162-45 15-38-1-75 29l38 36c24-7 3 2 23-11l17-16c77 11 375 20 428-12-9-12 15-18-44-30l-213-6c-75-8-165-14-239-35-50-14-241-165-280-266 181-31 143-11 344-67 48-13 83-9 120-17-12-12-7-18-38-28l-293 15c-98 0-241-24-300-20zm-1919 2595c76-28 141-95 186-131 185-148 108-73 143-167 55 5 53-7 59 49 3 23 0 67 0 92-1 216 30 318-45 446-53 91 34-9-79 120-64 74 34 12-135 142-46 35-62 65-99 99-45 41-77 32-78 91 61-5 171-124 218-164 40-33 79-64 104-96 37-48 43-74 101-96l29 64c6-264 12-517 4-807-140 33-135 84-210 162-76 79-161 133-198 196zm-54-10305c22 51 78 49 198 48 167-2 609 18 712-11 5-67-8-53-11-62-128-30-316 12-450 3-94-7-394-17-450 22zM4858 9330c49-18 37-7 53-65l-328-6c-218 2-153 14-277 52-1 0-21-16-26-20-38-27-615-2-699 7 13 11 10 9 30 21 42 24 25-5 53 43l42-42 517-19c2 51 14 29-22 60-15 13-36 21-49 30-131 82-74 56-140 122-70 71-60 53-111 147 91-31 93-89 208-157 60-35 120-108 190-147 102-58 131-63 268-67 117-4 289-28 291 43zm2160 2784c29 77 36 95 76 162 89 152 130 357 318 407-94 44-45-1-63 43 25 10 106 4 157 11 128 17 425 107 484 66-45-44-211-61-347-107-52-18-129-32-186-45-273-63-131-62-225-191l-134-249c-76-137-34-88-80-97zm855-2014c-74 1-34 24-17 58 93 189 65 267 64 463 41-22 24 14 39-69 6-35 5-51 9-85 6-58 21-109 30-169 93 17 112 58 157 105 213 222 137 302 135 560-1 97-6 11 14 48l68-275c11-56 10-50-3-88l46-10c-35-66-1-29-50-55-27 43-14 24-20 70-6 40 5 13-10 42-50-139-10-190-129-282-55-42-166-150-221-169-33 40-11 20-32 67l-79-209zm1384 1320c-43-52 2-13-54-35-1 83 0 47 33 88l101 113c25 28 28 23 49 43 93 90 133 195 178 239 3-7 43 19-9-69-30-51-23-8-37-66 53 15 80 34 129 49 56 17 87 13 144 42 65 34 61 29 158 28 66-1 107-11 154-30-20-15 3-10-32-18l-114-6c-143-15-229 8-397-97l-302-281zm-3715 1349c-62 34-25 12-56 78-12 26-29 55-41 80l57 31c-10 44-83 184-117 234-38 56-51 28-61 120-6 50-4 118-3 169-43-86-3-42-46-65-12 26-18-31-8 42l109 412c35 185-4 120 52 132 28-108-10-189-36-286-22-85-29-35-42-127-47-347 162-518 193-662-26-35-1-21-44-38l42-119zm1836 82c41 20 82 104 106 156l132 268c106 182 73 180 183 199l-58 22c32 40 41 27 114 15 80-12 20 8 116 23 60 9 239 41 280 34-50-48-434-134-538-161-30-90-36-43-68-190-23-104-64-79-96-153-45-102-45-68-86-158-27-59-53-118-102-147l18 91zm-5390-2584c168-200 377-118 425-154-19-46-4-30-79-38-153-17-312 35-392 165-48 77-61 28-156 73l1 65 59 40c109-29 6-31 154-104 4-2 28-15 31-16l20-15c-94-43 17 40-63-15zm2680 4310c59-37 25-25 71-111a872.1 872.1 0 0 1 59-94c56-82 104-216 172-321 38-60 18-68 42-112 9-16 80-111 91-156 11-49 6-28-8-64-67 24-55 40-84 97l-343 761zm3733-7741c51-27 31-34 88-58 57-25 73-16 110-60 44-52 82-163 121-199l-24 116 67-25c-11-154 104-396 64-458-34 27-104 263-163 386-30 63-55 132-110 165-38 23-146 97-152 133zM2838 9305c59 3 152-21 238-21 122 0 177 9 230-32-64-38-528 18-620 40l-14 59c115 2 490-6 586-37l-419-9zm-349-117c29 47-37-16 63 80-70 55-384 46-506 60l-51 14c-2-3-6 5-9 8 54 15 477 7 578 15-25 74-16 30-72 31-31 1-19 3-34 11l65 45c31-21 62-42 94-72-1-59 12-154-127-191z"/><path d="M6598 15374c52 23 35 5 65-45 55-94 116-99 189-180 132-147 75-269 58-388 96-6 41 3 69-20-46-33-26-24-96-20-61 126 19 97 18 203-2 176-218 286-284 375-75 99-24 67-19 75zm3264-7475c30-44 198-104 260-135 91-44 172-83 263-121-17-14-13-46-94-2-28 15-55 32-81 42-73 29-112 17-173 58-88 59-247 73-333 127 7 5-28 33 82 6 27-7 38-12 67-16-46 60-17-14-41 63 31 7 141 42 163 28l-112-51zm-4280 4689c42-33 23 0 57-49l-92 3c-58 82-342 88-443 95-130 9-99 24-107 60 229 3 505-69 577-53l-2 80 42-92-32-43zm-722-2329l-11-83c-68 23-286 253-344 338 99-36 199-240 313-278l-2 208 74 5c-18-57 24-240 39-299 11-44 11-35 30-60l108-154-133 130c-30 52-54 166-76 192zm3920-3559l78 29c43 5 66-3 99 18-18 17 12 9-35 15-20 2-47 1-68 1 45 28 83 16 149 23 262 27 239 62 372 91 82 18 45 6 66-12-124-99-326-128-489-155-28-4-62-10-93-16-123-23-55-12-79 5zm368 1629c7-10 39 11 6-64-15-33-193-226-212-430 140-2 187 52 244 34-41-21-196-58-259-58l-8 44-81-64c-17 79 3 94 47 157 32 45 65 80 97 120l167 261zm-6067 604c32 70 57 77 140 143l164 130c-33 39-28 21-64 42 50 36 57 19 126 10l89-22c-26-75-219-150-290-201-42-30-118-99-166-102zm1748 2079c58-31 32 14 45-192 7-107-41-112 26-181l-24-14c-9-202 36-145-57-167-8 88-7 178-11 270-3 75-23 221 21 284zm4476-3127c84 51 235 32 359 115l302 330c29 29 35 48 59 85 3-5 31 23-2-37l-185-307c-45 8-12-12-40 23-92-158-329-221-494-210zm-3172 4153c34-42 20-62 20-142-1-56 6-83-15-120-47 21-40 24-31 102 6 55 10 59 4 118-4-36-25-48-52-65-87 96-218 417-275 503-35 53-28 9-29 72 40-39 41-76 77-129 80-118 87-157 150-267 92-163 33-96 93-124 1 40 21 134 79 156 22-52 17-71-19-104zM2989 9693c64-6 67-44 126-94 44-37 79-69 128-102 51-34 240-121 256-178l-70 23c-43-108-88 6-97 14-17 17-38 21-57 35-40 29-65 65-105 94-73 52-41 55-95 106-36 34-83 39-87 103zm4546 4438c22-33-2 29 23-44 3-10 5-25 9-37 52-174 64-186 101-395 9-49 34-99 43-144-40-25-4-2-46-15 0-16 2-32-1-47-10-42-6-16-25-39-16 76-21 115-21 193-2 210-119 464-82 529zm3019-5604c37 64 113 68 188 41 60-22 156-169 240-218 73-43 121-14 162-66-92-54-238 58-289 107-96 92-108 148-300 136zM4841 2395c31 52-27 21 167 84 5 2 17 5 25 8 364-66 409-12 882-37l125-6 156-18c-167-68-263-78-446-35-94-17-859-40-910 4zm409 7432c-4-61-12-38-23-50-19 120 48 295 59 413 3 35-2 78 14 111 10 22 11 14 21 25 32-64-30-370-30-537 0-106 29-73 49-159-86 39-63 92-90 197zm1383 2495c-26-66-63-85-73-124-19-70 5-385-14-498-18 36-46 236-54 291-10 70 9 240 14 321 52-25 9 10 41-57 34 39 20 47 86 67zm3448-32c-6-38-277-342-340-371-102-47-58-65-163-39l78 257 3-211c107 7 313 314 421 364zm-3000-228l-40 23c67 3 400-1 479-18 81-18-47 15 25-6l20-11c-65-41-113 12-158-37l-26-39c-37 35-12 0-31 49-65-5-54-3-114 5-88 11-184-44-235-4l80 38zm-1237-105c50-60-8-23 51-58 48-29 26 21 41-49-90 8-189 56-277 77-83 19-207 17-275 62 28 15 45 29 118 11 253-62 88-24 343-42zm3508-633c56 17 450 85 479 27l-590-102 112 75zm-2755 1726c25 64 121 114 160 161 34 41 18 50 69 101 45 45 28 39 95 59l1-44c-51-22-45-24-103-101l-85-115c-69-112-44-56-93-108-37-40-24-76-73-105 2 49 37 76 87 176l-58-24zm-1893 507c59 32 39 10 130-10 56-12 67-10 124-29 100-34 134-61 252-51 2-29-12-95-13-95-86 33-163 70-251 103-171 64-85 29-194 53-53 12-38 19-49 30zm-587-3398c30 34-20 20 112 24l446-6c27 27 4-6 31 40 45-65-27-52-88-64-77-15-48-33-159-24-88 6-273 1-342 31zm-195-1384c25 61 80 120 129 179 50 61 98 83 145 145l102 8c-37-74 9-11-52-57l-234-196c-47-50-12-71-90-79zm1011 563c73-19 96-60 157-70 129-20 466-18 591-39-52-44-89-15-206-12-70 2-147-1-216 4-161 13-248-5-326 116zm-1340-101c13 7-10 20 98 16 40-1 62-5 98-12 62-11 122-2 186-9 188-20 332 31 359-54-45-10-63 7-88 13-70 16-267 2-395 24-52 9-96-14-187-3l-71 25zm3074 3112c-1-5-6-4-9-6 2 51 10 57 37 83-7-4-31-25-32-26-26-13-16-14-57 3 62 70 315 235 384 252-26-35-57-60-92-92-37-34-223-183-231-215zM4599 8806c32 84 126 183 195 250 56 55 107 51 60 123l67-5c-5-49-1-34-36-65 66 14 41 21 99 33l-252-209c-33-28-69-104-132-128zm3520-1922c12-57 8-78 68-85-7-77 49-191 9-249-50 59-47 168-79 240-21 48-96 174-75 231 60-44 47-69 76-137zm-1749 8483c-61-120-62-101-100-112 4 106 36 102 71 172 11 22 18 146 34 198l88 8c-26-95-19-81-72-71-6-56 2-147-21-194zm4610-7209c-134-17-211-45-347-80-8 25-14 31-28 56 60 14 180 25 257 36l182 33c89 6 21 1 48-12-20-16 10-5-30-21-4-2-23-6-25-6-19-4-39-3-59-6zM4858 9330c-30 11-11-10-45 29-12 14-14 23-24 39-60 110-153 156-160 251 64-29 80-102 131-141 58-45 85-99 156-124-27-23 25-47-65-15l6-39z"/><path d="M5682 12458c52-4 25 8 48-44l67-149c20-52 15-29 36-71 25-49 48-96 70-144 69-147 50-105 16-129-49 84 18 14-54 152-50 96-176 299-185 385zm2437-5574l-20 130c69-14 153-74 218-115 59-37 33-4 59-63-53 14-185 92-222 119l20-155c-26 21-20 8-39 41-5 8-9 25-17 41zm2789 994c22 67 52 106 89 157 83 113 106 112 152 80-16-57-17-31-68-56-98-47-61-222-173-181zM4993 9139c20 17-15 14 50 27l520-40c47-13 107-35 124-69-70 28-56 35-144 49l-551 34zm-2933 881c-85-22-39-20-116 38-56 42-86 60-78 188l194-226zm8656-5867c109-2 196-15 181-123l-100 15c-78 56-75 21-81 108zM7686 7284c55-2 294-152 320-213-53 2-115 52-166 89-29 21-57 41-82 55-75 44-40 3-73 69zm-1163 5179c-51 68-33 271-8 340 39-17 39 6 32-70l-24-270zm1504 1602c4 80 183 366 216 387-10-52-59-110-100-210-22-55-67-147-117-177zm2592-5979c26-79 76-58 113-124l-212 65c-90 23-22 0-55 35l154 25zm-4165 3749c-3-42-2-68-2-108 0-59 1-128-24-172-22 30-13-39-20 49 0 1 4 42 5 46 13 107 3 233 30 282 9-15 21 34 11-96zm2816-4028c44 25 109 33 159 44 23 5 57 12 80 15 80 12 61-4 74-13-57-21-255-82-313-46zm976 932c98 16 224-36 179-134-29 13-20-10-73 91-66 4-91-7-106 43zm-207-717c69 44 322 85 406 97-73-57-320-89-406-97zm-4734 5230c54-36 13 4 44-66 41-91 84-138 95-230-26 24-166 241-140 295zm2859-6154l340-215c64-37 19 1 54-42-61 10-363 196-394 257z"/><path d="M4521 9191c40 28 106 16 162 9 37-5 50-4 85-6 81-4 59-5 88-26-83 1-270-11-334 23zm1999 6415c50 0 14 13 38-26 23-38 11-134 5-176l-57 156c-5 46-2 22 14 46zm2611-4324c0 1 6 47 8 54 18 62 7 21 25 46 73-37-9-59 142-56l-80-31c-34-7-62-9-94-13zm-2288 483c-32 56 70 168 104 203-7-49-17-58-39-105-41-88-19-64-65-98zm535 1086c-39-43-7-36-78-53-4 48 20 70 97 153 18-33-8-37-18-100zm-2554-2781c54-28 246-226 265-266l-202 183c-24 30-40 48-63 83zm4949-2009c36-32 21-14 37-65 50 15 36 23 84-5-51-23-77-16-140-17l18 87zm-5179 2057c51 22 145 3 191-20-49-30-21-17-83-8-59 9-60 0-107 28zm332 4466c55 21 20 22 58 3-31-89-96-51-128-40l70 37zm3101-519c-3-61-9-44-39-101-44-85 17-40-58-67l62 139c20 28 9 14 35 28zm3218-5800c-3-24-3-51-8-72-9-36-15-32-28-43-47 62-24 100 36 116zm-3772 4815c23 76 88 195 135 245-13-69-63-128-98-190-22-38-10-24-37-55zm602-5548c-48-32-51-20-109-31-163-33-94-8-114 9l223 22zm-1278 6778c11 50 60 116 107 137-10-48-19-46-44-78-30-39-17-36-63-59zm-338-2304c-35 41-26 53-23 120l24 123-1-243zm1467 1851c-25-71-104-92-83-154-47 8 8 97 35 127 31 34-3 8 48 27zm-2375-969c43-19 14 0 39-31l17-28c56-85 14-58 7-75l-64 135zm-323-3252c46-24 143-123 168-170-34 21-59 51-88 80l-80 90zm-168 246c35 82 45 44 70-20-69 0-30-12-70 20zm3609-2139c13 14 6 12 27 25 82 50 81 9 82 9-43-35-47-31-109-33zm-513-191c23 3 39 10 63 2 58-20 38-31 50-45-32 7-31 3-64 15-55 20-30 15-49 29zm2110 463c27 24-34 20 72 34 33 4 51 1 85-10l-156-24zm-5175 5680c24-23 2 8 28-32l48-121c-58 48-47 62-76 154zm2647-3692c5 0 2 11 3 13 18 40 49 56 92 74-29-60 11-14-47-58-29-23-16-14-48-29z"/><path d="M6921 13371c0 1-30-5 14 53 23-12 38 28 27-32-10-51-24-18-41-21zm1211-6247c-53-9 32-18-15 7 15 10-31 21 60 37 46 8 27 3 46-6l-91-37zm-30 89l98 10c-37-39 37-19-51-33-48-8-45 17-47 24zM4425 9164c-16-8-24-16-39-16-51 0-2-5-31 18 68-1 52 32 139 50l-69-51zm5271 2686c20 56 34 46 63 0-66-40-56-3-63 0zM5228 9636l-131 52c59-2 112 5 131-52zm5338-1491c-32-30-21-33-68-15 22 16-28 17 35 30 64 12 18-5 33-14zm-2920-692c11 9 15 20 50 26 40 6 34-4 49-10-37-17-63-30-99-15zm2365 4106c59-12 34 8 50-53-55 15-36-22-50 53zM8868 6643c63-15 43 1 63-53-51 13-44 4-63 53zm-365 4084c5 0 8 20 10 23l85 73c-24-48-10-24-42-56-46-47-6-17-53-40zm-1605 1480c31-9 16 20 33-38 20-66-1-11-11-31l-22 69zM5122 9775c16-34 26-15-1-55-4 5-19-19-14 25 4 35-1 11 15 30zm4439-3605c65-12 74-9 90-50l-90 50zm-3103 7049l1-31c-27 25-40-6-15 66 12-22-1 24 15-34zm3810-5191c-8-5-33-29-75-35-21-3-21-1-38 1l113 34zm-3115 4466c-9-53 9-20-16-61-23 22-17-8-10 29 5 33-7-1 26 31zm3359-3999c32 36-55 11 43 40-26-52 19-20-43-40zm-3039 4585c-31-71-8-56-62-103l62 103zm-399-1174c-51 27 6-53-13 21-17 69-12-12 13 22 11-24 15-17 0-43zm3782-4104c-24 17-2 38 0 40 2-3 7-8 7-9l-7-31zM3414 9561c-28 31-9 18 0 35v-35zm895-1425c-60-31 1-6-20 16l20-16zm3284-707l-82-13z"/></svg>