<svg width="396" height="212" viewBox="0 0 396 212" fill="none" xmlns="http://www.w3.org/2000/svg">
<g clip-path="url(#clip0_36_266)">
<path fill-rule="evenodd" clip-rule="evenodd" d="M262.507 12.1711C262.175 12.1604 261.847 12.2495 261.566 12.4268C261.284 12.6041 261.062 12.8616 260.929 13.1662C260.795 13.4707 260.755 13.8085 260.814 14.1358C260.874 14.4632 261.03 14.7651 261.263 15.003C261.495 15.2408 261.794 15.4036 262.119 15.4704C262.445 15.5371 262.783 15.5049 263.091 15.3777C263.398 15.2505 263.66 15.0342 263.843 14.7566C264.027 14.4791 264.123 14.1529 264.119 13.8202C264.122 13.606 264.082 13.3934 264.002 13.1946C263.923 12.9958 263.804 12.8146 263.655 12.6615C263.505 12.5083 263.327 12.3862 263.13 12.3021C262.933 12.2179 262.721 12.1735 262.507 12.1711V12.1711Z" fill="#EDE9E6"/>
<path fill-rule="evenodd" clip-rule="evenodd" d="M258.369 8.56818C258.178 8.59689 258.004 8.69323 257.878 8.83961C257.752 8.98599 257.683 9.1727 257.683 9.36586C257.683 9.55901 257.752 9.74572 257.878 9.8921C258.004 10.0385 258.178 10.1348 258.369 10.1635C258.56 10.1348 258.734 10.0385 258.86 9.8921C258.986 9.74572 259.055 9.55901 259.055 9.36586C259.055 9.1727 258.986 8.98599 258.86 8.83961C258.734 8.69323 258.56 8.59689 258.369 8.56818V8.56818Z" fill="#EDE9E6"/>
<path fill-rule="evenodd" clip-rule="evenodd" d="M268.204 10.6833C268.044 10.6797 267.886 10.724 267.751 10.8104C267.616 10.8969 267.51 11.0216 267.446 11.1686C267.383 11.3157 267.364 11.4784 267.393 11.636C267.422 11.7936 267.498 11.9391 267.609 12.0537C267.721 12.1683 267.865 12.2469 268.022 12.2795C268.179 12.3121 268.342 12.2973 268.49 12.2368C268.638 12.1763 268.765 12.073 268.855 11.9399C268.944 11.8069 268.992 11.6502 268.992 11.49C268.992 11.2791 268.91 11.0766 268.762 10.9259C268.615 10.7751 268.414 10.688 268.204 10.6833Z" fill="#EDE9E6"/>
<path fill-rule="evenodd" clip-rule="evenodd" d="M269.673 29.6122C269.585 30.6207 269.764 31.6346 270.192 32.5519C270.604 33.6991 271.106 34.7208 272.449 34.7387C273.625 34.6724 274.76 34.2817 275.728 33.6095C280.027 30.8491 280.51 23.8404 277.805 19.9327C276.794 18.7296 275.516 17.779 274.073 17.1566C272.63 16.5343 271.062 16.2574 269.493 16.3477C262.722 16.509 260.841 23.9299 259.713 29.4867C259.713 29.8631 258.871 30.616 258.907 30.9028C258.512 27.3178 260.823 21.7789 263.242 18.893C267.648 13.6768 275.011 13.157 279.543 18.6779C282.839 22.6931 279.758 29.0924 277.447 32.7491C276.293 34.8181 274.537 36.4873 272.413 37.5351C267.648 39.6503 268.705 32.2831 269.35 30.0962C269.35 29.9169 269.655 29.6481 269.673 29.5405V29.6122Z" fill="#EDE9E6"/>
<path fill-rule="evenodd" clip-rule="evenodd" d="M256.703 17.6383C255.92 15.4721 254.608 13.5359 252.888 12.0052C251.167 10.4745 249.092 9.39789 246.851 8.8729C245.44 8.43264 243.955 8.2851 242.486 8.43921C241.017 8.59332 239.594 9.04583 238.306 9.76915C235.941 11.1494 233.845 13.9278 234.813 16.8137C235.104 17.7787 235.711 18.6179 236.536 19.1965C237.361 19.775 238.357 20.0596 239.363 20.0044C240.389 19.7526 241.276 19.1093 241.835 18.2119C242.104 17.8355 243.143 15.9712 242.713 15.4693C244.343 17.2618 242.91 20.2374 241.226 21.3309C240.089 21.9311 238.767 22.0799 237.525 21.7476C236.283 21.4153 235.212 20.6263 234.526 19.5383C233.9 18.4011 233.594 17.1151 233.642 15.8176C233.689 14.52 234.088 13.2597 234.795 12.1712C235.619 10.656 236.863 9.4112 238.377 8.58615C241.325 7.07419 244.706 6.63078 247.943 7.33137C249.675 7.64561 251.341 8.25172 252.87 9.12388C255.087 10.2966 256.945 12.05 258.244 14.1967C262.31 21.3667 261.307 30.9029 257.223 37.6428C253.936 42.6164 249.09 46.3556 243.447 48.2723C237.423 50.4715 230.944 51.1247 224.602 50.1724C221.05 49.5929 217.599 48.5063 214.355 46.9459L213.477 46.4798C212.08 45.7449 210.701 44.974 209.339 44.1853C208.853 43.8693 208.312 43.6446 207.745 43.5221C207.419 43.4752 207.104 43.3721 206.814 43.2174C206.584 43.0663 206.329 42.957 206.061 42.8948C205.461 42.7892 204.888 42.5637 204.377 42.2316L202.586 41.3174C202.102 41.0664 201.654 40.8154 201.171 40.5824C200.687 40.3494 200.436 40.3494 200.257 40.0805C200.773 40.0257 201.294 40.0621 201.798 40.1881C202.299 40.2956 202.729 40.6003 203.213 40.7258C203.697 40.8513 204.144 41.0664 204.61 41.2098C208.193 42.4287 211.776 44.1674 215.358 45.5477C217.32 46.3045 219.339 46.9039 221.395 47.3402C222.613 47.5911 223.849 47.7883 225.086 47.9855C227.972 48.4748 230.902 48.661 233.827 48.5411C236.764 48.3969 239.659 47.7921 242.408 46.7486C244.878 45.8402 247.206 44.5849 249.323 43.0203C251.856 41.1422 253.901 38.6833 255.288 35.8502L255.378 35.6709C256.296 33.8258 257.005 31.8839 257.491 29.8812C258.357 25.7621 258.078 21.4844 256.685 17.5128L256.703 17.6383Z" fill="#EDE9E6"/>
<path fill-rule="evenodd" clip-rule="evenodd" d="M228.382 43.9702C228.2 43.9666 228.022 44.0172 227.869 44.1155C227.717 44.2137 227.597 44.3552 227.525 44.5219C227.453 44.6886 227.432 44.8729 227.466 45.0514C227.499 45.2299 227.584 45.3945 227.711 45.5242C227.838 45.6538 228.001 45.7427 228.179 45.7794C228.356 45.8162 228.541 45.7992 228.709 45.7305C228.877 45.6619 229.021 45.5448 229.122 45.3941C229.223 45.2434 229.277 45.0659 229.277 44.8844C229.28 44.7652 229.258 44.6467 229.214 44.5359C229.17 44.4251 229.105 44.3241 229.021 44.239C228.938 44.1539 228.839 44.0862 228.729 44.0401C228.619 43.9939 228.501 43.9702 228.382 43.9702Z" fill="#EDE9E6"/>
<path fill-rule="evenodd" clip-rule="evenodd" d="M218.959 42.4467C218.693 42.4467 218.438 42.5524 218.25 42.7406C218.062 42.9289 217.956 43.1842 217.956 43.4505C217.956 43.7167 218.062 43.9719 218.25 44.1602C218.438 44.3484 218.693 44.4543 218.959 44.4543C219.225 44.4543 219.48 44.3484 219.668 44.1602C219.857 43.9719 219.962 43.7167 219.962 43.4505C219.962 43.1842 219.857 42.9289 219.668 42.7406C219.48 42.5524 219.225 42.4467 218.959 42.4467Z" fill="#EDE9E6"/>
<path fill-rule="evenodd" clip-rule="evenodd" d="M223.742 43.7372C223.542 43.73 223.345 43.7828 223.175 43.8887C223.006 43.9946 222.872 44.1487 222.79 44.3314C222.709 44.514 222.684 44.7169 222.718 44.914C222.753 45.111 222.845 45.2931 222.984 45.4371C223.123 45.5811 223.301 45.6804 223.497 45.7221C223.692 45.7639 223.896 45.7462 224.081 45.6714C224.267 45.5966 224.426 45.468 224.538 45.3022C224.649 45.1365 224.709 44.941 224.709 44.741C224.712 44.6115 224.689 44.4828 224.641 44.3623C224.594 44.2418 224.523 44.1318 224.433 44.0386C224.344 43.9454 224.236 43.8707 224.118 43.819C223.999 43.7673 223.871 43.7395 223.742 43.7372V43.7372Z" fill="#EDE9E6"/>
<path fill-rule="evenodd" clip-rule="evenodd" d="M233.236 43.8268C233.068 43.8537 232.915 43.9398 232.804 44.0696C232.693 44.1994 232.633 44.3643 232.633 44.5349C232.633 44.7055 232.693 44.8704 232.804 45.0002C232.915 45.13 233.068 45.2161 233.236 45.243C233.405 45.2161 233.558 45.13 233.668 45.0002C233.779 44.8704 233.84 44.7055 233.84 44.5349C233.84 44.3643 233.779 44.1994 233.668 44.0696C233.558 43.9398 233.405 43.8537 233.236 43.8268Z" fill="#EDE9E6"/>
<path fill-rule="evenodd" clip-rule="evenodd" d="M214.767 41.7655C214.582 41.7655 214.404 41.8391 214.273 41.9702C214.142 42.1013 214.069 42.2792 214.069 42.4646C214.069 42.6517 214.142 42.8314 214.272 42.9653C214.403 43.0993 214.58 43.1768 214.767 43.1815C214.859 43.1792 214.949 43.1589 215.033 43.1216C215.117 43.0843 215.193 43.0307 215.256 42.9641C215.319 42.8975 215.369 42.8192 215.402 42.7335C215.435 42.6478 215.45 42.5564 215.448 42.4646C215.45 42.3736 215.434 42.2831 215.401 42.1984C215.368 42.1137 215.318 42.0364 215.255 41.9713C215.192 41.9061 215.116 41.8543 215.032 41.819C214.948 41.7836 214.858 41.7654 214.767 41.7655Z" fill="#EDE9E6"/>
<path fill-rule="evenodd" clip-rule="evenodd" d="M238.664 42.8051C238.609 42.805 238.553 42.8163 238.502 42.8381C238.451 42.8599 238.405 42.8919 238.366 42.9321C238.328 42.9723 238.298 43.0199 238.278 43.072C238.259 43.1241 238.25 43.1797 238.252 43.2353C238.252 43.3447 238.296 43.4495 238.373 43.5268C238.45 43.6041 238.555 43.6476 238.664 43.6476C238.773 43.6476 238.878 43.6041 238.955 43.5268C239.033 43.4495 239.076 43.3447 239.076 43.2353C239.079 43.1797 239.07 43.1241 239.05 43.072C239.031 43.0199 239.001 42.9723 238.962 42.9321C238.923 42.8919 238.877 42.8599 238.826 42.8381C238.775 42.8163 238.72 42.805 238.664 42.8051V42.8051Z" fill="#EDE9E6"/>
<path fill-rule="evenodd" clip-rule="evenodd" d="M211.023 40.6362C210.969 40.6385 210.916 40.6514 210.867 40.6743C210.818 40.6971 210.774 40.7295 210.737 40.7695C210.7 40.8094 210.672 40.8563 210.654 40.9072C210.635 40.9581 210.627 41.0122 210.629 41.0664C210.616 41.1264 210.617 41.1886 210.632 41.2483C210.646 41.308 210.673 41.3637 210.712 41.4114C210.751 41.4592 210.8 41.4976 210.855 41.524C210.91 41.5505 210.971 41.5642 211.032 41.5642C211.094 41.5642 211.154 41.5505 211.209 41.524C211.265 41.4976 211.314 41.4592 211.352 41.4114C211.391 41.3637 211.418 41.308 211.433 41.2483C211.447 41.1886 211.448 41.1264 211.435 41.0664C211.438 41.0108 211.429 40.9553 211.409 40.9031C211.39 40.851 211.36 40.8034 211.321 40.7632C211.283 40.723 211.236 40.6911 211.185 40.6692C211.134 40.6474 211.079 40.6361 211.023 40.6362V40.6362Z" fill="#EDE9E6"/>
<path fill-rule="evenodd" clip-rule="evenodd" d="M43.7811 41.1202L43.6558 41.2636C43.19 41.7834 42.7959 42.6796 42.1868 43.0561C42.1868 42.6079 42.6884 42.1598 42.9392 41.8551C43.19 41.5504 43.6557 40.905 44.0139 40.4569C45.0346 39.2294 46.1748 38.1065 47.4176 37.1049C48.2595 36.37 49.209 35.653 50.033 34.9898C51.4598 33.9082 52.9828 32.9602 54.5831 32.1577C55.3056 31.8059 56.0472 31.4947 56.8044 31.2256C65.1551 28.4662 74.2355 28.9329 82.2597 32.5341C97.2177 38.9333 109.954 56.1593 107.124 73.4212C106.118 80.2508 102.721 86.5013 97.5401 91.0595C95.0578 93.0873 92.0279 94.3289 88.8372 94.6258C85.6465 94.9227 82.4398 94.2615 79.6264 92.7265C77.0817 91.5252 75.0252 89.4876 73.7996 86.9533C72.574 84.419 72.2532 81.5409 72.8908 78.7987C73.5795 76.2926 75.0632 74.0783 77.1185 72.4891C79.6664 70.5251 82.8814 69.6372 86.0754 70.0155C86.1799 70.0155 86.28 70.0569 86.354 70.1309C86.4279 70.2049 86.4694 70.3052 86.4694 70.4098C86.4694 70.5144 86.4279 70.6147 86.354 70.6887C86.28 70.7626 86.1799 70.8042 86.0754 70.8042C84.0676 70.9587 82.1142 71.5311 80.3404 72.4849C78.5667 73.4387 77.0117 74.7528 75.775 76.343C74.8221 77.7754 74.2483 79.4265 74.1073 81.1414C73.9663 82.8564 74.2627 84.5791 74.9689 86.1481C76.7602 90.1812 81.0237 92.386 85.0543 93.3181C87.1641 93.6931 89.3312 93.5897 91.3959 93.0158C93.4606 92.4419 95.3704 91.412 96.9847 90.0019C103.398 84.7857 106.73 75.4109 106.425 67.1653C106.067 57.4679 101.051 48.3261 94.3872 41.7296C90.3692 37.6369 85.4843 34.499 80.0926 32.5476C74.7009 30.5962 68.9402 29.881 63.2354 30.4548C60.3352 30.8493 57.4988 31.6205 54.798 32.7491C51.3935 34.3935 48.3018 36.6198 45.6621 39.3277C44.9993 39.9372 44.3364 40.6003 43.7094 41.2636L43.7811 41.1202Z" fill="#EDE9E6"/>
<path fill-rule="evenodd" clip-rule="evenodd" d="M288.912 118.592C277.358 117.517 264.263 112.964 258.297 101.868C256.399 98.2833 253.801 95.5946 252.386 91.7407C252.583 92.1171 252.959 92.2246 253.228 92.5472C253.497 92.8699 253.64 93.3359 253.855 93.6765C254.07 94.0171 254.643 94.8058 255.019 95.3794C255.779 96.3547 256.618 97.266 257.527 98.1041C267.756 108.716 281.782 117.66 296.722 117.463C302.501 117.299 308.197 116.04 313.507 113.753C325.276 108.991 334.728 99.8284 339.859 88.2094C343.627 79.6316 345.736 70.4168 346.075 61.0529C346.504 46.5695 342.886 29.8633 332.89 19.1441C330.607 16.6511 327.843 14.6475 324.764 13.2549C321.684 11.8622 318.355 11.1094 314.976 11.0419C313.125 11.0435 311.278 11.2174 309.459 11.5617C301.505 13.0136 295.128 17.943 293.731 26.6009C292.602 33.8964 295.791 42.2674 303.601 43.2354C305.378 43.3519 307.159 43.0928 308.828 42.4751C310.498 41.8575 312.019 40.895 313.292 39.6504C314.946 38.1354 316.099 36.1523 316.598 33.9652C317.098 31.7781 316.919 29.4906 316.087 27.4075C316.087 27.1745 316.66 26.6367 316.589 26.5113C319.329 33.2152 314.923 40.5108 309.172 43.7911C307.565 44.7759 305.731 45.328 303.848 45.394C301.964 45.4599 300.096 45.0374 298.424 44.1674C294.734 42.106 293.05 37.7144 292.602 33.6454C291.778 26.4754 294.698 18.0327 300.699 13.9278C303.985 11.7736 307.708 10.3764 311.599 9.83701C315.489 9.29763 319.452 9.62959 323.199 10.8089C337.028 15.2543 343.477 31.4765 345.842 44.8665C348.64 61.3369 345.8 78.2702 337.781 92.9237C333.75 100.115 328.026 106.213 321.104 110.686C314.183 115.16 306.274 117.874 298.066 118.592C295.02 118.86 291.957 118.86 288.912 118.592V118.592Z" fill="#EDE9E6"/>
<path fill-rule="evenodd" clip-rule="evenodd" d="M128.943 56.8225C139.18 60.073 149.197 63.9829 158.93 68.5277C168.537 73.5028 177.861 79.0083 186.858 85.0188C191.891 88.2453 196.943 91.4359 202.102 94.4115C206.897 97.218 211.863 99.7205 216.971 101.904C226.339 105.812 236.55 108.303 246.707 107.282C254.682 106.643 262.346 103.903 268.92 99.3409C273.739 95.9529 277.472 91.2395 279.669 85.7716C281.12 81.9356 281.907 77.8803 281.997 73.7797C281.564 73.7228 281.166 73.5092 280.879 73.179C280.591 72.8488 280.435 72.4248 280.439 71.9872C280.44 71.6399 280.542 71.3004 280.733 71.0101C280.924 70.7198 281.194 70.4913 281.513 70.3521C281.831 70.213 282.182 70.1692 282.525 70.2263C282.867 70.2834 283.185 70.4389 283.441 70.6737C283.697 70.9085 283.879 71.2126 283.965 71.549C284.052 71.8855 284.038 72.2397 283.927 72.5687C283.816 72.8977 283.612 73.1874 283.339 73.4024C283.066 73.6173 282.737 73.7484 282.391 73.7797C282.447 77.946 281.724 82.0861 280.26 85.9867C278.038 91.5632 274.248 96.3759 269.35 99.8427C266.021 102.229 262.357 104.108 258.477 105.418C254.245 106.825 249.9 107.863 245.489 108.519C236.144 109.677 226.659 108.444 217.92 104.934C212.546 102.854 207.763 99.556 202.658 96.9031C182.666 86.3452 164.269 72.9193 143.739 63.3832C138.853 61.1505 133.847 59.1877 128.746 57.5037C110.957 51.4629 87.7591 48.0034 69.3438 49.3478C60.0825 49.5091 52.075 52.18 46.7189 53.2734C45.6082 53.5064 44.4796 53.7215 43.3511 53.9007C43.0645 53.9007 42.5987 54.1517 42.4375 53.7932C42.2762 53.4347 42.9391 53.5064 43.1361 53.5064C44.3158 53.4059 45.481 53.1775 46.6114 52.8253C51.9855 51.6601 60.0108 48.9177 69.308 48.7384C87.7949 47.3403 111.065 50.8535 128.943 56.8405V56.8225Z" fill="#EDE9E6"/>
<path fill-rule="evenodd" clip-rule="evenodd" d="M298.961 138.919C306.396 140.622 307.632 142.917 315.245 142.917C325.474 142.917 330.866 143.401 338.694 143.186C352.703 142.827 366.89 143.598 379.412 150.965C383.881 153.599 387.683 157.229 390.521 161.572C393.36 165.916 395.159 170.857 395.777 176.01C396.396 181.162 395.818 186.389 394.089 191.282C392.36 196.175 389.526 200.603 385.807 204.221C376.85 213.183 361.462 214.456 350.768 207.806C343.011 202.93 339.339 192.031 344.158 183.911C349.729 174.501 361.283 175.487 368.198 182.406C373.375 187.622 371.602 193.734 366.407 197.248C366.407 197.248 366.407 197.104 366.514 197.068C377.621 188.249 364.4 177.53 354.96 178.157C353.105 178.261 351.294 178.763 349.651 179.63C348.008 180.498 346.571 181.709 345.439 183.183C344.306 184.656 343.505 186.357 343.089 188.168C342.673 189.98 342.653 191.86 343.029 193.681C343.746 198.126 346.881 201.998 349.836 205.099C355.694 211.247 365.726 212.054 373.429 210.279C388.476 206.82 396.716 190.078 394.692 174.859C391.826 153.224 370.061 145.068 352.022 144.243C343.155 143.831 334.234 144.799 325.366 144.387C312.576 143.795 311.537 142.702 304.748 141.519L296.095 137.252L298.926 139.045L298.961 138.919Z" fill="#EDE9E6"/>
<path fill-rule="evenodd" clip-rule="evenodd" d="M366.442 195.921C366.193 195.914 365.947 195.981 365.736 196.115C365.525 196.248 365.359 196.442 365.259 196.67C365.158 196.899 365.128 197.152 365.173 197.398C365.217 197.644 365.333 197.871 365.507 198.05C365.681 198.229 365.904 198.352 366.148 198.403C366.393 198.455 366.647 198.432 366.878 198.338C367.109 198.244 367.307 198.084 367.446 197.877C367.586 197.67 367.66 197.426 367.661 197.176C367.663 197.014 367.633 196.852 367.573 196.701C367.513 196.55 367.424 196.413 367.311 196.296C367.198 196.18 367.063 196.087 366.914 196.022C366.765 195.958 366.605 195.924 366.442 195.921V195.921Z" fill="#EDE9E6"/>
<path fill-rule="evenodd" clip-rule="evenodd" d="M370.975 190.006C370.643 189.995 370.316 190.084 370.035 190.26C369.754 190.437 369.532 190.693 369.398 190.997C369.263 191.3 369.223 191.637 369.281 191.964C369.339 192.291 369.493 192.593 369.724 192.831C369.954 193.07 370.251 193.234 370.576 193.303C370.9 193.372 371.238 193.342 371.545 193.218C371.853 193.093 372.116 192.88 372.302 192.604C372.488 192.329 372.587 192.005 372.587 191.673C372.592 191.457 372.553 191.243 372.475 191.042C372.396 190.841 372.278 190.658 372.129 190.503C371.979 190.348 371.799 190.224 371.601 190.139C371.403 190.053 371.19 190.008 370.975 190.006V190.006Z" fill="#EDE9E6"/>
<path fill-rule="evenodd" clip-rule="evenodd" d="M369.756 183.123C369.347 183.165 368.967 183.358 368.691 183.665C368.416 183.971 368.263 184.369 368.263 184.781C368.263 185.193 368.416 185.591 368.691 185.897C368.967 186.203 369.347 186.396 369.756 186.439C370.166 186.396 370.546 186.203 370.821 185.897C371.097 185.591 371.25 185.193 371.25 184.781C371.25 184.369 371.097 183.971 370.821 183.665C370.546 183.358 370.166 183.165 369.756 183.123Z" fill="#EDE9E6"/>
<path fill-rule="evenodd" clip-rule="evenodd" d="M343.853 138.131C343.853 137.862 344.444 137.432 344.659 137.306C345.371 136.969 346.115 136.705 346.881 136.517C347.705 136.231 348.547 135.998 349.371 135.693C350.195 135.388 351.162 135.048 351.95 134.689C363.737 129.963 373.212 120.816 378.355 109.2C382.156 100.63 384.29 91.4128 384.643 82.0431C385.091 67.5596 381.472 50.8535 371.458 40.1343C369.177 37.6388 366.413 35.6336 363.334 34.2408C360.254 32.8479 356.923 32.0965 353.545 32.0322C351.693 32.0355 349.846 32.2095 348.027 32.552C342.098 33.6275 336.831 36.37 334.072 42.1419C333.233 43.8443 332.63 45.6536 332.281 47.5194C331.152 54.797 334.323 63.168 342.151 64.1539C343.928 64.2693 345.708 64.0097 347.378 63.3921C349.047 62.7745 350.569 61.8126 351.843 60.5689C353.493 59.0518 354.643 57.0678 355.139 54.8808C355.635 52.6938 355.454 50.4074 354.619 48.326C354.53 48.093 355.193 47.5552 355.139 47.4298C357.862 54.1338 353.473 61.4293 347.705 64.7096C346.097 65.6927 344.263 66.2439 342.38 66.3099C340.497 66.3758 338.629 65.9543 336.956 65.0861C333.266 63.0247 331.582 58.633 331.135 54.564C330.786 51.3745 331.113 48.1472 332.095 45.0926C333.076 42.0381 334.69 39.2248 336.831 36.8361C340.772 33.2095 345.822 31.0236 351.162 30.634C354.706 30.221 358.297 30.5693 361.695 31.6557C375.525 36.1011 381.956 52.3054 384.32 65.7134C387.126 82.1837 384.285 99.1194 376.259 113.771C375.632 114.954 374.933 116.083 374.199 117.212C373.465 118.341 372.676 119.399 371.852 120.439C371.028 121.478 370.168 122.5 369.255 123.468C368.341 124.436 367.464 125.368 366.442 126.282C365.421 127.196 364.454 128.075 363.415 128.845C362.376 129.616 361.301 130.441 360.208 131.176C359.116 131.911 357.987 132.61 356.841 133.255C355.694 133.9 354.512 134.492 353.258 135.048C352.004 135.603 350.857 136.123 349.675 136.589C348.493 137.055 347.203 137.45 345.949 137.808C345.421 138.021 344.867 138.16 344.301 138.22C343.979 138.22 343.889 138.22 343.907 138.005L343.853 138.131Z" fill="#EDE9E6"/>
<path fill-rule="evenodd" clip-rule="evenodd" d="M159.163 54.4027C158.885 54.6216 158.648 54.8887 158.465 55.1914C157.121 57.5037 158.662 60.6943 159.987 62.5227C161.618 64.6402 163.782 66.2858 166.257 67.2908C170.771 69.0833 176.808 68.5814 180.248 64.4766C181.958 62.2309 182.946 59.5181 183.08 56.6978C183.214 53.8775 182.489 51.0829 181 48.6846C178.456 44.3288 174.515 42.6259 170.825 39.973C170.714 39.8972 170.63 39.7867 170.588 39.6586C170.546 39.5305 170.548 39.3921 170.593 39.265C170.638 39.138 170.724 39.0295 170.837 38.9565C170.951 38.8835 171.085 38.8502 171.219 38.8616C175.984 39.7041 180.91 44.2391 183.042 49.2044C184.218 52.0105 184.572 55.0938 184.061 58.0935C183.55 61.0932 182.196 63.8854 180.158 66.1436C176.342 70.2126 169.589 69.9975 165.093 67.9361C162.437 66.6357 160.22 64.5856 158.715 62.0388C158.037 60.8869 157.587 59.6148 157.39 58.2924C157.211 57.141 157.103 55.9796 157.067 54.8149C156.942 53.2375 157.228 49.294 159.486 50.8356C159.792 51.0859 160.024 51.4154 160.157 51.7882C160.289 52.161 160.317 52.563 160.238 52.9507C160.072 53.561 159.69 54.09 159.163 54.4386V54.4027Z" fill="#EDE9E6"/>
<path fill-rule="evenodd" clip-rule="evenodd" d="M303.314 143.06C313.274 147.631 323.27 154.496 326.746 165.7C328.537 171.256 329.236 177.315 327.176 182.89C326.784 183.97 326.174 184.959 325.384 185.794C324.713 186.593 323.78 187.126 322.751 187.299C322.554 187.299 322.142 187.299 322.052 186.994C321.963 186.69 322.411 186.511 322.643 186.385C328.161 183.768 327.838 175.953 327.193 170.772C326.968 168.957 326.615 167.16 326.137 165.395C323.109 154.478 312.755 147.577 303.297 143.114C303.297 143.114 303.297 143.024 303.297 143.114L303.314 143.06Z" fill="#EDE9E6"/>
<path fill-rule="evenodd" clip-rule="evenodd" d="M294.662 136.033C297.715 137.275 300.987 137.885 304.282 137.826C307.315 137.977 310.349 137.577 313.239 136.643C319.236 134.523 324.264 130.301 327.391 124.759C331.474 118.238 333.623 110.692 333.589 102.998C333.356 97.9426 332.012 90.5754 327.785 87.4027C327.695 87.3506 327.617 87.2799 327.556 87.1955C327.496 87.111 327.454 87.0147 327.433 86.9128C327.412 86.8108 327.413 86.7057 327.436 86.6042C327.459 86.5028 327.504 86.4074 327.566 86.3244C327.629 86.2413 327.708 86.1724 327.799 86.1224C327.891 86.0724 327.991 86.0423 328.095 86.0341C328.198 86.0259 328.303 86.0398 328.4 86.0749C328.498 86.11 328.588 86.1654 328.662 86.2376C332.998 89.6972 334.037 96.7776 334.449 102.065C334.932 109.917 331.797 118.431 327.928 125.081C324.787 130.576 319.825 134.799 313.902 137.019C310.834 138.098 307.582 138.555 304.336 138.364C301.344 138.22 297.17 138.059 294.644 136.231V136.069L294.662 136.033Z" fill="#EDE9E6"/>
<path fill-rule="evenodd" clip-rule="evenodd" d="M104.383 28.8236C103.763 35.8805 101.195 42.6262 96.9667 48.3081C93.8287 53.047 89.8451 57.1669 85.2153 60.4614H85.0541C88.7623 59.0274 92.2196 57.45 95.3724 55.9622C106.981 50.4771 118.606 45.0996 130.268 39.7221C135.445 37.3559 140.891 35.0616 145.262 31.2615C147.982 28.8119 150.065 25.7367 151.333 22.3015C152.6 18.8664 153.012 15.1743 152.535 11.5439C152.203 9.55694 151.417 7.67341 150.239 6.0402C149.06 4.40698 147.521 3.06818 145.74 2.12794C143.96 1.18771 141.987 0.671507 139.974 0.619563C137.962 0.567618 135.964 0.981252 134.138 1.82839C128.763 4.39168 124.787 10.791 125.987 16.8676C126.167 17.9581 126.643 18.9781 127.363 19.8159C128.083 20.6538 129.02 21.2772 130.071 21.6178C133.654 22.281 139.028 19.1261 136.86 14.7345C136.712 14.426 136.497 14.1544 136.231 13.9391C135.965 13.7238 135.655 13.5704 135.322 13.4898C134.99 13.4092 134.644 13.4035 134.309 13.473C133.974 13.5426 133.658 13.6857 133.385 13.892C133.684 13.5809 134.001 13.2876 134.335 13.0136C134.739 12.6915 135.193 12.4372 135.678 12.2608C139.01 11.4183 140.748 15.3619 140.425 18.1223C139.852 23.1951 133.582 24.5395 129.785 22.8187C128.094 21.9365 126.73 20.5378 125.889 18.8259C125.048 17.1141 124.775 15.1784 125.109 13.3005C125.445 11.0638 126.258 8.92585 127.495 7.03262C128.732 5.13939 130.362 3.53547 132.275 2.33035C134.01 1.17166 135.986 0.424069 138.054 0.144521C140.121 -0.135026 142.225 0.0607869 144.205 0.717043C150.242 2.402 153.377 8.01257 153.502 14.1788C153.505 17.4829 152.82 20.7513 151.491 23.7758C150.162 26.8003 148.217 29.5144 145.781 31.7454C143.569 33.6621 141.126 35.2941 138.509 36.6031C142.309 34.962 145.861 32.7959 149.06 30.1679C150.081 29.4151 151.084 28.6085 152.087 27.8018C153.09 26.9952 154.255 26.0094 155.312 25.0593C159.277 21.7254 162.879 17.9823 166.06 13.892C167.421 12.0995 168.711 10.1456 169.965 8.20972C170.556 7.27761 171.147 6.41727 171.756 5.35969C172.614 4.28963 173.275 3.07582 173.709 1.77467C174.318 -1.6311 179.925 1.7746 176.593 4.05108C175.958 4.68924 175.415 5.4133 174.981 6.20212C174.175 7.24177 173.297 8.24558 172.437 9.23146C170.789 11.1494 169.051 12.9599 167.26 14.7524C163.391 18.6242 159.683 22.6036 155.527 26.1707C153.413 27.9632 151.245 29.7557 148.988 31.2793C145.979 33.4303 142.933 35.5097 139.763 37.3918L139.333 37.6428C140.264 37.3022 141.124 36.9795 142.109 36.621C147.018 34.6851 151.98 32.8926 156.87 30.9209C161.761 28.9491 166.902 27.2282 171.936 25.4536C173.207 25.0055 174.443 24.4499 175.679 23.9121C178.736 22.7302 181.725 21.3839 184.636 19.879C184.898 19.7697 185.191 19.76 185.46 19.8516C185.728 19.9432 185.954 20.1299 186.095 20.3764C186.236 20.623 186.282 20.9125 186.224 21.1906C186.167 21.4687 186.01 21.7162 185.783 21.8866C184.992 22.2132 184.148 22.3896 183.293 22.4065C179.718 23.1489 176.208 24.1737 172.795 25.4716C167.959 27.0131 163.176 28.7699 158.464 30.5803C153.753 32.3907 149.293 33.9681 144.743 35.7785C142.951 36.5314 141.016 37.2842 139.1 37.9295L138.526 38.1267L137.093 38.9154C140.963 37.8399 144.85 36.8421 148.755 35.9219C150.871 35.4088 153.012 35.002 155.168 34.703C156.96 34.4879 158.662 34.2549 160.417 34.1115C165.343 33.753 170.288 33.753 175.214 34.1115C178.797 34.3624 182.164 34.7747 185.622 35.3483C196.914 37.3059 207.708 41.4788 217.383 47.627C224.574 52.2917 230.952 58.1049 236.264 64.8351C238.736 67.3327 241.214 69.8182 243.698 72.2919C246.116 74.6939 248.678 77.4903 252.153 78.0818C253.589 78.2294 255.037 77.9471 256.312 77.2705C257.588 76.594 258.634 75.5538 259.318 74.2817C260.34 72.4892 260.77 69.9258 258.584 68.7965C257.509 68.2408 256.022 68.7966 256.184 70.2126C256.194 70.4019 256.269 70.5819 256.396 70.7223C256.523 70.8626 256.695 70.9548 256.882 70.9834C257.039 70.9994 257.197 70.9644 257.332 70.8837C257.468 70.803 257.574 70.6809 257.635 70.5353C257.635 70.7145 257.635 70.9117 257.635 71.091C257.549 71.2798 257.427 71.4502 257.276 71.5929C257.115 71.7267 256.928 71.8261 256.728 71.8852C256.527 71.9444 256.316 71.9618 256.108 71.9367C255.9 71.9115 255.699 71.8442 255.518 71.7389C255.337 71.6335 255.18 71.4924 255.055 71.324C254.887 71.0215 254.794 70.6831 254.783 70.3371C254.772 69.9912 254.844 69.6477 254.994 69.3354C255.143 69.0231 255.364 68.751 255.64 68.5419C255.915 68.3328 256.237 68.1926 256.578 68.1333C257.193 68.0091 257.826 68.0085 258.441 68.1316C259.056 68.2547 259.641 68.499 260.16 68.8503C262.435 70.4636 262.758 74.2279 262.185 76.827C261.824 78.4868 260.986 80.0045 259.773 81.1927C258.56 82.381 257.026 83.1876 255.36 83.513C253.011 84.0283 250.554 83.6378 248.481 82.4196C255.62 93.3956 263.655 103.762 272.503 113.412C282.553 123.934 294.501 131.803 304.748 131.158C315.066 130.979 324.076 120.726 323.467 111.028C323.31 107.476 322.169 104.038 320.171 101.098C318.583 98.5398 316.345 96.4492 313.687 95.0388C311.818 94.1302 309.679 93.9513 307.685 94.537C306.593 94.6625 305.285 95.9351 304.103 97.4766C303.352 98.5421 302.827 99.7505 302.562 101.027C302.297 102.304 302.297 103.621 302.562 104.898C302.67 105.364 303.207 105.955 303.064 106.439C303.064 106.636 301.971 106.314 301.846 106.242C299.409 105.023 300.054 101.187 300.878 99.1975C301.396 97.7098 302.23 96.3518 303.321 95.2164C304.413 94.081 305.736 93.195 307.202 92.619C309.63 91.918 312.232 92.1348 314.511 93.2284C317.689 95.014 320.368 97.5697 322.302 100.661C324.236 103.752 325.364 107.28 325.581 110.92C325.789 116.873 323.874 122.706 320.179 127.376C316.484 132.046 311.249 135.248 305.41 136.41C302.078 136.998 298.665 136.968 295.343 136.32C308.134 142.364 322.69 143.524 336.276 139.583C345.546 137.375 354.241 133.22 361.785 127.394C369.907 121.402 375.329 112.439 376.868 102.46C377.989 95.4887 376.592 88.3458 372.927 82.3121C370.967 79.1849 368.142 76.6941 364.794 75.142C362.719 74.2925 360.469 73.9612 358.237 74.1766C356.006 74.3921 353.86 75.148 351.986 76.3789C347.579 79.0139 343.405 82.7961 342.08 88.0481C341.192 91.3312 341.582 94.8291 343.172 97.8352C344.964 100.757 348.403 101.133 351.323 100.201C353.747 99.373 355.777 97.6739 357.02 95.4333C357.02 95.2002 357.253 95.0031 357.342 94.77C358.168 92.8348 358.238 90.6601 357.539 88.6755C357.337 88.0847 357.014 87.5423 356.592 87.0826C356.17 86.6229 355.656 86.2559 355.085 86.0046L354.566 85.8792H354.028C354.028 85.4848 355.139 84.947 355.425 84.9291C355.839 84.8421 356.269 84.8772 356.664 85.0299C357.058 85.1827 357.399 85.4465 357.647 85.7896C358.736 87.7176 359.02 89.9987 358.435 92.135C358.229 92.9913 357.941 93.8258 357.575 94.6266C356.687 96.7439 355.16 98.5303 353.207 99.7357C351.254 100.941 348.973 101.505 346.684 101.349C342.671 100.811 341.309 96.3832 341.148 92.7982C341.157 89.182 342.297 85.6592 344.408 82.7243C347.093 78.9163 350.758 75.9062 355.013 74.0128C357.456 72.91 360.16 72.5217 362.813 72.8929C365.467 73.264 367.961 74.3794 370.007 76.11C377.083 81.6309 378.964 91.2746 378.086 99.9145C376.205 117.481 362.394 130.71 347.436 137.468C338.973 141.245 329.831 143.263 320.565 143.401C311.283 143.445 302.106 141.431 293.695 137.503C295.128 138.328 296.561 139.17 298.012 139.941C305.102 143.805 312.718 146.613 320.619 148.276C322.733 148.707 324.901 148.886 327.032 149.191C329.97 149.585 332.908 149.943 335.846 150.248C336.85 150.373 337.863 150.409 338.873 150.356C339.274 150.337 339.669 150.246 340.038 150.087C340.246 150.017 340.445 149.92 340.629 149.8C340.728 149.701 340.836 149.611 340.951 149.531C341.155 149.41 341.38 149.331 341.614 149.298C341.938 149.244 342.271 149.315 342.545 149.495C342.934 149.826 343.215 150.266 343.352 150.758C343.489 151.25 343.477 151.771 343.316 152.256C343.232 152.476 343.106 152.677 342.945 152.849C342.784 153.02 342.59 153.158 342.376 153.255C342.161 153.351 341.929 153.404 341.694 153.411C341.459 153.418 341.225 153.379 341.005 153.295C340.569 153.115 340.154 152.886 339.769 152.614C339.148 152.308 338.472 152.132 337.78 152.094L336.527 151.915C333.768 151.449 330.973 151.503 328.215 150.965C326.531 150.625 324.883 150.41 323.217 149.997C322.142 149.746 321.049 149.459 319.992 149.173L319.598 149.065C316.875 148.33 314.224 147.524 311.537 146.627C306.736 145.039 302.084 143.029 297.636 140.622C286.673 134.689 275.566 128.362 266.789 119.112C254.589 105.973 249.573 88.4962 239.918 73.5826C233.82 63.9247 225.757 55.6609 216.254 49.3299C206.791 43.3059 196.237 39.201 185.192 37.2484L182.522 36.8182C186.525 38.1185 190.38 39.8368 194.023 41.9447C203.29 47.3464 210.802 55.308 215.66 64.8747C220.519 74.4414 222.516 85.2073 221.413 95.8814C220.235 106.069 215.227 115.426 207.405 122.052C200.519 127.676 192.222 131.297 183.418 132.52C179.325 133.164 175.172 133.333 171.04 133.022C170.683 133.093 170.33 133.183 169.983 133.291C168.649 133.608 167.395 134.198 166.3 135.023C165.205 135.849 164.292 136.892 163.619 138.087C162.946 139.282 162.528 140.604 162.39 141.968C162.252 143.333 162.397 144.712 162.817 146.018C163.163 147.361 163.822 148.604 164.74 149.644C165.658 150.683 166.809 151.491 168.098 151.999C169.388 152.508 170.78 152.704 172.16 152.571C173.54 152.438 174.869 151.98 176.038 151.234C179.62 149.226 179.459 143.383 175.5 141.949C172.222 140.766 166.418 144.906 171.183 147.506C171.203 147.524 171.216 147.548 171.221 147.575C171.226 147.602 171.222 147.629 171.21 147.653C171.197 147.677 171.178 147.697 171.154 147.709C171.13 147.721 171.102 147.725 171.076 147.721C170.327 147.497 169.665 147.05 169.178 146.439C168.69 145.828 168.401 145.083 168.348 144.304C168.296 143.524 168.482 142.747 168.883 142.076C169.284 141.405 169.88 140.873 170.592 140.551C172.048 139.668 173.793 139.397 175.447 139.797C177.101 140.197 178.53 141.234 179.423 142.684C180.393 144.35 180.666 146.332 180.183 148.198C179.7 150.064 178.5 151.665 176.844 152.65C175.296 153.557 173.552 154.073 171.76 154.154C169.969 154.235 168.185 153.879 166.561 153.116C160.883 150.427 159.575 142.164 162.62 136.984C164.005 134.838 166.159 133.304 168.639 132.699C167.511 132.574 166.418 132.413 165.325 132.215C159.81 131.354 154.513 129.437 149.723 126.569C138.616 119.578 130.017 107.246 135.857 93.5153C138.724 86.7396 148.289 78.5119 153.664 87.9943C155.634 91.4897 154.201 94.3578 151.245 96.455C154.989 93.4257 154.703 86.8113 149.74 85.1263C142.163 82.5451 137.201 92.9774 137.488 99.2691C137.846 107.12 140.766 114.201 149.024 115.276C152.804 115.778 155.186 114.273 155.974 110.903C158.07 118.485 164.143 123.809 170.861 127.035C171.854 127.473 172.871 127.856 173.906 128.182C170.941 126.6 168.44 124.271 166.651 121.425C165.125 119.201 164.257 116.592 164.146 113.897C164.035 111.202 164.686 108.53 166.024 106.188C166.651 105.041 166.83 105.149 166.203 106.296C163.337 111.405 165.576 118.198 168.765 122.518C170.839 125.443 173.721 127.699 177.059 129.007C182.836 130.139 188.822 129.463 194.202 127.071C198.311 125.242 202.079 122.727 205.345 119.632C211.968 113.256 215.876 104.568 216.254 95.3794C216.45 86.0212 214.122 76.7831 209.517 68.6358C204.912 60.4885 198.198 53.7328 190.082 49.0789C185.352 46.3508 180.288 44.248 175.017 42.8231C176.446 43.6668 177.669 44.8179 178.599 46.193C179.579 47.578 180.256 49.1537 180.588 50.8177C180.682 53.1942 179.94 55.5284 178.492 57.4141C177.101 59.1818 175.233 60.5132 173.109 61.2503C170.985 61.9874 168.693 62.0994 166.508 61.5727C163.247 60.5689 164.107 57.0019 165.881 54.7612C166.472 54.0084 167.851 52.3771 168.854 52.3592C166.042 53.3451 168.854 57.3245 170.359 58.0773C175.303 60.4614 180.749 55.6395 180.05 50.3696C179.513 46.3006 175.697 43.558 172.079 42.5004C170.554 41.9569 168.999 41.502 167.421 41.1381C166.526 40.9588 165.63 40.8155 164.716 40.6721C163.14 40.4212 161.546 40.2239 159.969 40.0447C159.271 40.0447 158.572 39.8834 157.873 39.8475C151.048 39.4353 144.814 38.8437 130.232 43.074C118.911 46.3364 107.249 52.5923 96.1964 57.8802C86.7021 62.3973 76.3659 66.8427 65.8506 67.9541C60.529 68.6281 55.1256 68.1948 49.9791 66.6813C48.1035 66.0769 46.301 65.2653 44.605 64.2615C42.7212 63.2054 41.0554 61.8001 39.6967 60.1208C39.1873 59.3938 38.738 58.6264 38.3531 57.8263C38.1369 57.4713 37.9626 57.0923 37.8337 56.6971C37.8099 56.2971 37.8099 55.8961 37.8337 55.4961C38.8548 56.0876 39.3742 57.4499 40.1982 58.2924C42.2082 60.2054 44.4976 61.8011 46.9876 63.0247C49.8377 64.4706 52.896 65.4625 56.0519 65.9644C63.4895 67.2294 71.1357 66.2042 77.9782 63.0247C81.6335 61.2156 85.0263 58.9181 88.0636 56.1952C94.961 50.265 99.8182 42.313 101.947 33.4662C102.759 29.9623 102.861 26.3309 102.245 22.787C101.63 19.2431 100.31 15.8588 98.364 12.8344C95.9733 9.69541 92.8145 7.22597 89.1922 5.66439C85.4703 3.90885 81.2134 3.6647 77.3154 4.98322C75.5929 5.88551 74.1185 7.19778 73.022 8.80445C71.9255 10.4111 71.2406 12.2629 71.0277 14.1967C71.0009 14.7282 71.0009 15.2607 71.0277 15.7921C71.2247 18.8752 75.112 24.432 78.3902 21.3668C80.719 19.162 81.7759 24.6829 79.0172 23.7866C76.9317 23.3703 74.9626 22.5015 73.249 21.2413C71.7521 19.825 70.817 17.9153 70.6157 15.8638C70.3477 13.337 70.9823 10.797 72.4071 8.69373C73.3173 7.04388 74.5694 5.60773 76.0794 4.48138C78.0578 3.13671 80.3385 2.30351 82.7174 2.05639C85.0963 1.80928 87.4993 2.15588 89.7117 3.06523C100.048 6.65024 105.153 18.194 104.419 28.7698L104.383 28.8236ZM83.209 61.2322L83.6927 60.9275L83.1374 61.2501L83.209 61.2322Z" fill="#EDE9E6"/>
<path fill-rule="evenodd" clip-rule="evenodd" d="M156.924 134.205C149.296 134.699 141.724 132.609 135.428 128.272C129.494 124.163 124.828 118.476 121.956 111.853C119.348 106.041 118.657 99.5488 119.986 93.318C120.723 90.4147 122.248 87.7719 124.393 85.6819C125.517 84.5819 126.872 83.7457 128.359 83.2342C129.846 82.7227 131.429 82.5485 132.991 82.7243V82.8677C129.749 83.1724 127.348 85.6281 125.145 87.9046C123.153 90.1078 121.808 92.8185 121.258 95.7379C120.24 101.649 121.059 107.73 123.605 113.161C129.122 126.031 143.023 135.55 156.87 134.169L156.924 134.205Z" fill="#EDE9E6"/>
<path fill-rule="evenodd" clip-rule="evenodd" d="M175.429 14.2146C175.019 14.2573 174.64 14.4504 174.364 14.7566C174.088 15.0628 173.935 15.4604 173.935 15.8727C173.935 16.2849 174.088 16.6825 174.364 16.9887C174.64 17.2949 175.019 17.488 175.429 17.5307C175.839 17.488 176.218 17.2949 176.494 16.9887C176.77 16.6825 176.922 16.2849 176.922 15.8727C176.922 15.4604 176.77 15.0628 176.494 14.7566C176.218 14.4504 175.839 14.2573 175.429 14.2146Z" fill="#EDE9E6"/>
<path fill-rule="evenodd" clip-rule="evenodd" d="M170.305 18.4987C170.204 18.501 170.105 18.5233 170.012 18.5642C169.919 18.6051 169.836 18.6638 169.766 18.7371C169.696 18.8103 169.641 18.8967 169.605 18.9911C169.568 19.0855 169.551 19.1861 169.553 19.2874C169.536 19.3972 169.543 19.5095 169.574 19.6163C169.604 19.7232 169.657 19.8221 169.73 19.9065C169.802 19.9908 169.892 20.0585 169.993 20.105C170.094 20.1514 170.203 20.1754 170.314 20.1754C170.425 20.1754 170.535 20.1514 170.636 20.105C170.737 20.0585 170.827 19.9908 170.899 19.9065C170.971 19.8221 171.025 19.7232 171.055 19.6163C171.086 19.5095 171.093 19.3972 171.076 19.2874C171.076 19.0813 170.995 18.8834 170.851 18.736C170.707 18.5886 170.511 18.5033 170.305 18.4987V18.4987Z" fill="#EDE9E6"/>
<path fill-rule="evenodd" clip-rule="evenodd" d="M163.928 4.67847C163.518 4.72116 163.139 4.91425 162.863 5.22046C162.587 5.52668 162.435 5.92428 162.435 6.33652C162.435 6.74875 162.587 7.14635 162.863 7.45257C163.139 7.75878 163.518 7.95188 163.928 7.99456C164.338 7.95188 164.717 7.75878 164.993 7.45257C165.269 7.14635 165.422 6.74875 165.422 6.33652C165.422 5.92428 165.269 5.52668 164.993 5.22046C164.717 4.91425 164.338 4.72116 163.928 4.67847Z" fill="#EDE9E6"/>
<path fill-rule="evenodd" clip-rule="evenodd" d="M161.581 10.4323C161.425 10.4288 161.271 10.472 161.139 10.5565C161.007 10.641 160.903 10.7628 160.841 10.9066C160.778 11.0504 160.76 11.2096 160.788 11.3637C160.817 11.5179 160.89 11.66 161 11.7721C161.109 11.8842 161.25 11.9611 161.403 11.993C161.556 12.0249 161.716 12.0105 161.861 11.9513C162.006 11.8922 162.13 11.7911 162.218 11.6611C162.305 11.531 162.352 11.3778 162.352 11.221C162.354 11.1183 162.336 11.0162 162.298 10.9206C162.261 10.825 162.204 10.7379 162.133 10.6644C162.061 10.5909 161.975 10.5326 161.88 10.4927C161.786 10.4529 161.684 10.4323 161.581 10.4323Z" fill="#EDE9E6"/>
<path fill-rule="evenodd" clip-rule="evenodd" d="M159.396 14.1071C159.295 14.1094 159.195 14.1316 159.103 14.1725C159.01 14.2134 158.926 14.2721 158.857 14.3454C158.787 14.4186 158.732 14.505 158.695 14.5994C158.659 14.6938 158.641 14.7946 158.644 14.8958C158.627 15.0056 158.634 15.1178 158.664 15.2247C158.695 15.3315 158.748 15.4305 158.82 15.5148C158.893 15.5992 158.982 15.6669 159.083 15.7133C159.184 15.7597 159.294 15.7837 159.405 15.7837C159.516 15.7837 159.626 15.7597 159.727 15.7133C159.828 15.6669 159.917 15.5992 159.99 15.5148C160.062 15.4305 160.115 15.3315 160.146 15.2247C160.176 15.1178 160.183 15.0056 160.166 14.8958C160.166 14.6897 160.086 14.4917 159.942 14.3443C159.798 14.1969 159.602 14.1118 159.396 14.1071V14.1071Z" fill="#EDE9E6"/>
<path fill-rule="evenodd" clip-rule="evenodd" d="M156.942 17.8534C156.826 17.8462 156.712 17.8741 156.612 17.9335C156.513 17.9928 156.434 18.0807 156.386 18.1857C156.337 18.2908 156.322 18.408 156.341 18.5221C156.361 18.6361 156.414 18.7417 156.494 18.8248C156.575 18.9079 156.678 18.9648 156.792 18.9879C156.905 19.011 157.023 18.9994 157.129 18.9544C157.236 18.9095 157.326 18.8333 157.389 18.7359C157.451 18.6386 157.483 18.5247 157.479 18.409C157.482 18.3369 157.47 18.2651 157.444 18.1978C157.418 18.1305 157.379 18.069 157.328 18.0171C157.278 17.9653 157.218 17.9241 157.152 17.8959C157.085 17.8678 157.014 17.8533 156.942 17.8534V17.8534Z" fill="#EDE9E6"/>
<path fill-rule="evenodd" clip-rule="evenodd" d="M106.425 33.0717C106.231 33.1274 106.059 33.245 105.937 33.4067C105.816 33.5685 105.75 33.7654 105.75 33.968C105.75 34.1706 105.816 34.3677 105.937 34.5294C106.059 34.6911 106.231 34.8086 106.425 34.8643C106.62 34.8086 106.791 34.6911 106.913 34.5294C107.035 34.3677 107.101 34.1706 107.101 33.968C107.101 33.7654 107.035 33.5685 106.913 33.4067C106.791 33.245 106.62 33.1274 106.425 33.0717V33.0717Z" fill="#EDE9E6"/>
<path fill-rule="evenodd" clip-rule="evenodd" d="M103.183 40.5107C103.024 40.5368 102.879 40.6188 102.774 40.7419C102.67 40.865 102.612 41.0213 102.612 41.1829C102.612 41.3445 102.67 41.5008 102.774 41.6239C102.879 41.7471 103.024 41.829 103.183 41.8551C103.342 41.829 103.487 41.7471 103.592 41.6239C103.696 41.5008 103.754 41.3445 103.754 41.1829C103.754 41.0213 103.696 40.865 103.592 40.7419C103.487 40.6188 103.342 40.5368 103.183 40.5107V40.5107Z" fill="#EDE9E6"/>
<path fill-rule="evenodd" clip-rule="evenodd" d="M107.285 16.1326C106.875 16.1753 106.496 16.3684 106.22 16.6746C105.944 16.9808 105.792 17.3784 105.792 17.7907C105.792 18.2029 105.944 18.6005 106.22 18.9067C106.496 19.2129 106.875 19.406 107.285 19.4487C107.695 19.406 108.074 19.2129 108.35 18.9067C108.626 18.6005 108.779 18.2029 108.779 17.7907C108.779 17.3784 108.626 16.9808 108.35 16.6746C108.074 16.3684 107.695 16.1753 107.285 16.1326Z" fill="#EDE9E6"/>
<path fill-rule="evenodd" clip-rule="evenodd" d="M107.984 24.7187C107.68 24.7187 107.388 24.8395 107.173 25.0547C106.958 25.2698 106.837 25.5617 106.837 25.8659C106.837 26.1702 106.958 26.4619 107.173 26.6771C107.388 26.8922 107.68 27.013 107.984 27.013C108.132 27.0107 108.278 26.9792 108.414 26.9203C108.55 26.8613 108.673 26.7763 108.776 26.6697C108.88 26.5632 108.961 26.4373 109.015 26.2994C109.07 26.1615 109.097 26.0142 109.094 25.8659C109.097 25.7176 109.07 25.5703 109.015 25.4323C108.961 25.2944 108.88 25.1686 108.776 25.0621C108.673 24.9556 108.55 24.8704 108.414 24.8115C108.278 24.7525 108.132 24.721 107.984 24.7187V24.7187Z" fill="#EDE9E6"/>
<path fill-rule="evenodd" clip-rule="evenodd" d="M104.383 8.24553C103.99 8.23123 103.601 8.33508 103.268 8.54367C102.934 8.75225 102.67 9.05599 102.511 9.41585C102.351 9.77571 102.302 10.1752 102.372 10.5628C102.441 10.9504 102.624 11.3084 102.899 11.5906C103.173 11.8729 103.526 12.0666 103.911 12.1466C104.296 12.2267 104.697 12.1894 105.06 12.0397C105.424 11.8901 105.735 11.6348 105.953 11.3068C106.171 10.9788 106.285 10.5931 106.282 10.1994C106.287 9.94604 106.241 9.6942 106.148 9.45852C106.055 9.22284 105.916 9.00794 105.74 8.82626C105.563 8.64459 105.352 8.49969 105.119 8.40002C104.887 8.30034 104.636 8.24786 104.383 8.24553V8.24553Z" fill="#EDE9E6"/>
<path fill-rule="evenodd" clip-rule="evenodd" d="M63.2174 71.6645C62.9514 71.6645 62.6962 71.7702 62.508 71.9585C62.3199 72.1467 62.2143 72.4021 62.2143 72.6683C62.2143 72.9345 62.3199 73.1899 62.508 73.3781C62.6962 73.5664 62.9514 73.6721 63.2174 73.6721C63.4835 73.6721 63.7387 73.5664 63.9268 73.3781C64.1149 73.1899 64.2206 72.9345 64.2206 72.6683C64.2206 72.4021 64.1149 72.1467 63.9268 71.9585C63.7387 71.7702 63.4835 71.6645 63.2174 71.6645Z" fill="#EDE9E6"/>
<path fill-rule="evenodd" clip-rule="evenodd" d="M58.1298 70.7324C57.8946 70.7252 57.6626 70.7885 57.4635 70.9141C57.2645 71.0397 57.1073 71.2218 57.0123 71.4373C56.9173 71.6527 56.8888 71.8916 56.9303 72.1234C56.9718 72.3553 57.0815 72.5694 57.2453 72.7384C57.4091 72.9075 57.6197 73.0238 57.8499 73.0724C58.0802 73.1211 58.3196 73.0998 58.5378 73.0114C58.7559 72.923 58.9427 72.7715 59.0743 72.5763C59.2059 72.381 59.2762 72.151 59.2763 71.9155C59.2787 71.7625 59.2509 71.6105 59.1946 71.4682C59.1382 71.3259 59.0545 71.1961 58.948 71.0863C58.8415 70.9764 58.7145 70.8886 58.5741 70.8279C58.4337 70.7671 58.2828 70.7347 58.1298 70.7324V70.7324Z" fill="#EDE9E6"/>
<path fill-rule="evenodd" clip-rule="evenodd" d="M67.9467 71.2701C67.754 71.263 67.5635 71.3137 67.3998 71.4156C67.2361 71.5175 67.1066 71.6661 67.0278 71.8422C66.9491 72.0183 66.9248 72.2139 66.958 72.404C66.9912 72.594 67.0803 72.7699 67.214 72.9089C67.3478 73.0479 67.52 73.1436 67.7086 73.1839C67.8971 73.2243 68.0935 73.2073 68.2723 73.1353C68.4512 73.0632 68.6043 72.9392 68.7123 72.7794C68.8203 72.6195 68.878 72.4311 68.8782 72.2381C68.8805 72.1134 68.8583 71.9893 68.8128 71.8731C68.7672 71.757 68.6993 71.6509 68.6128 71.561C68.5263 71.4711 68.4229 71.3992 68.3086 71.3493C68.1943 71.2994 68.0714 71.2724 67.9467 71.2701V71.2701Z" fill="#EDE9E6"/>
<path fill-rule="evenodd" clip-rule="evenodd" d="M72.3713 70.3918C72.167 70.3918 71.971 70.473 71.8266 70.6176C71.6821 70.7621 71.601 70.9581 71.601 71.1625C71.601 71.367 71.6821 71.5631 71.8266 71.7076C71.971 71.8522 72.167 71.9333 72.3713 71.9333C72.5756 71.9333 72.7716 71.8522 72.916 71.7076C73.0605 71.5631 73.1416 71.367 73.1416 71.1625C73.1416 70.9581 73.0605 70.7621 72.916 70.6176C72.7716 70.473 72.5756 70.3918 72.3713 70.3918Z" fill="#EDE9E6"/>
<path fill-rule="evenodd" clip-rule="evenodd" d="M76.7602 69.137C76.6603 69.1334 76.5616 69.1599 76.4768 69.2128C76.392 69.2658 76.3249 69.3428 76.2842 69.4342C76.2435 69.5255 76.231 69.6269 76.2482 69.7254C76.2655 69.8239 76.3118 69.915 76.3812 69.987C76.4506 70.059 76.5398 70.1087 76.6376 70.1295C76.7354 70.1504 76.8372 70.1416 76.9299 70.1041C77.0226 70.0667 77.102 70.0025 77.1579 69.9196C77.2139 69.8367 77.2438 69.739 77.2439 69.639C77.2463 69.5739 77.2355 69.5091 77.2123 69.4483C77.189 69.3875 77.1538 69.3319 77.1086 69.285C77.0635 69.2382 77.0094 69.201 76.9495 69.1755C76.8897 69.1501 76.8252 69.137 76.7602 69.137Z" fill="#EDE9E6"/>
<path fill-rule="evenodd" clip-rule="evenodd" d="M211.632 67.5417C212.259 70.356 213.603 72.9192 214.373 75.6618C214.993 77.901 215.442 80.184 215.717 82.4912C216.16 86.8325 215.808 91.2184 214.678 95.4332C213.646 99.427 211.743 103.143 209.107 106.314C205.983 109.598 202.028 111.974 197.662 113.189C193.297 114.404 188.684 114.413 184.314 113.215C179.954 111.771 176.234 108.848 173.799 104.951C171.24 100.592 170.116 95.5371 170.585 90.5029C171.054 85.4687 173.094 80.7096 176.414 76.8986C178.156 74.7066 180.432 72.9997 183.023 71.9418C185.614 70.884 188.434 70.5107 191.211 70.8578C196.872 71.8437 202.711 75.2495 203.607 81.6129C203.607 81.7384 203.446 81.7921 203.41 81.6129C202.156 75.1061 195.958 71.6645 189.975 71.0909C184.35 70.5352 179.37 73.8334 175.877 78.0995C167.995 87.7612 169.446 103.894 180.068 110.777C189.133 116.656 202.353 113.896 209.286 105.758C215.43 98.588 216.989 87.5103 214.946 78.3864C214.122 74.658 212.6 71.2164 211.579 67.6314L211.632 67.5417Z" fill="#EDE9E6"/>
<path fill-rule="evenodd" clip-rule="evenodd" d="M203.714 79.8204C203.305 79.8631 202.925 80.0562 202.649 80.3624C202.374 80.6686 202.221 81.0662 202.221 81.4785C202.221 81.8907 202.374 82.2883 202.649 82.5945C202.925 82.9007 203.305 83.0938 203.714 83.1365C204.124 83.0938 204.504 82.9007 204.78 82.5945C205.055 82.2883 205.208 81.8907 205.208 81.4785C205.208 81.0662 205.055 80.6686 204.78 80.3624C204.504 80.0562 204.124 79.8631 203.714 79.8204V79.8204Z" fill="#EDE9E6"/>
<path fill-rule="evenodd" clip-rule="evenodd" d="M201.242 75.1599C200.957 75.1528 200.677 75.2308 200.437 75.384C200.196 75.5372 200.007 75.7585 199.893 76.0199C199.779 76.2812 199.746 76.5705 199.797 76.851C199.848 77.1315 199.982 77.3904 200.18 77.5945C200.379 77.7987 200.635 77.9389 200.913 77.9972C201.192 78.0555 201.482 78.0293 201.746 77.9219C202.01 77.8145 202.236 77.6308 202.395 77.3942C202.555 77.1577 202.64 76.879 202.64 76.5939C202.642 76.4079 202.608 76.2233 202.539 76.0506C202.47 75.8779 202.368 75.7204 202.238 75.5873C202.108 75.4541 201.953 75.3478 201.783 75.2745C201.612 75.2011 201.428 75.1623 201.242 75.1599V75.1599Z" fill="#EDE9E6"/>
<path fill-rule="evenodd" clip-rule="evenodd" d="M197.248 71.9872C197.023 71.98 196.801 72.0401 196.611 72.1598C196.421 72.2795 196.271 72.4533 196.18 72.6589C196.089 72.8645 196.061 73.0926 196.101 73.3139C196.14 73.5353 196.245 73.7399 196.401 73.9014C196.557 74.063 196.758 74.1741 196.978 74.2207C197.198 74.2673 197.427 74.247 197.635 74.1627C197.843 74.0784 198.022 73.9338 198.147 73.7474C198.273 73.561 198.34 73.3413 198.34 73.1165C198.343 72.9705 198.316 72.8255 198.263 72.6898C198.209 72.554 198.129 72.4302 198.028 72.3253C197.926 72.2205 197.805 72.1367 197.671 72.0786C197.537 72.0206 197.393 71.9895 197.248 71.9872V71.9872Z" fill="#EDE9E6"/>
<path fill-rule="evenodd" clip-rule="evenodd" d="M39.1056 47.6091C43.7005 47.4102 48.0779 45.5946 51.4661 42.4824C52.5485 41.4742 53.5377 40.3704 54.4218 39.1842C55.5129 37.5517 56.2849 35.727 56.6968 33.8067C57.3327 31.7476 57.4738 29.5674 57.1088 27.4433C56.6789 25.4357 55.7115 22.9799 53.5261 22.478C52.1192 22.3008 50.6908 22.423 49.3343 22.8366C49.5672 20.8648 50.2121 19.0364 52.4692 19.1081C53.3693 19.1568 54.2355 19.4679 54.9612 20.003C55.6869 20.538 56.2404 21.2737 56.5535 22.1195C58.2984 26.4361 58.3368 31.2553 56.661 35.5992C56.2701 36.6061 55.7717 37.5676 55.1742 38.4672C52.8913 41.9262 49.5839 44.5838 45.7157 46.0674C43.5564 46.8832 41.3071 47.437 39.016 47.7166V47.5732L39.1056 47.6091Z" fill="#EDE9E6"/>
<path fill-rule="evenodd" clip-rule="evenodd" d="M42.7421 48.2544C38.1562 50.8894 31.5282 49.6705 26.9781 47.5015C20.9412 44.6156 16.9822 38.3776 15.4595 31.8888C14.077 25.5186 15.1051 18.8616 18.3447 13.2061C21.5843 7.55064 26.8051 3.29857 32.9971 1.27267C34.3943 0.806622 34.7884 3.26242 33.2657 3.35205C27.39 3.71055 22.5175 8.06632 19.2751 12.8523C15.9203 18.263 14.7125 24.7349 15.8895 30.9925C16.3784 34.1538 17.5277 37.1764 19.2623 39.8635C20.997 42.5505 23.2781 44.8416 25.957 46.5873C30.4354 49.4016 37.8695 50.8356 42.6883 48.1289C42.6883 48.1289 42.8137 48.1289 42.6883 48.2544H42.7421Z" fill="#EDE9E6"/>
<path fill-rule="evenodd" clip-rule="evenodd" d="M32.1014 48.5591C19.9021 49.1865 6.25188 36.7465 12.1455 23.6074C12.9507 21.9155 14.0415 20.3752 15.3699 19.0544C16.7336 17.5864 18.347 16.3725 20.135 15.4693C22.5892 14.2863 26.1361 14.0533 27.9454 16.5629C28.5085 17.3829 28.8537 18.3328 28.9485 19.3233C28.9735 19.9817 28.8659 20.6384 28.632 21.2543C28.3981 21.8702 28.0427 22.4327 27.5871 22.9083L27.3184 23.1054L26.9959 23.2309C27.2203 22.3548 27.2203 21.4362 26.9959 20.5601C26.715 19.1259 25.9104 17.8479 24.7389 16.9751C24.1029 16.5372 23.377 16.2471 22.6146 16.1261C21.8521 16.0051 21.0722 16.0564 20.3321 16.276C13.0233 17.8893 10.3899 27.282 12.0021 33.7709C14.2055 42.5183 23.9327 48.5591 32.2088 48.4515L32.1014 48.5591Z" fill="#EDE9E6"/>
<path fill-rule="evenodd" clip-rule="evenodd" d="M35.3258 52.7715C35.3258 52.7715 35.4512 52.7715 35.6661 52.8611C36.3516 53.3631 36.9558 53.9677 37.4575 54.6536C38.3353 55.7112 39.2489 56.8225 39.9655 57.9518C40.682 59.0811 41.488 60.2104 42.2225 61.3576C48.7072 71.4494 50.0687 83.2979 47.8474 95.0388C47.0591 99.9295 45.2084 104.588 42.426 108.685C39.6435 112.782 35.9969 116.219 31.743 118.754C28.0518 120.871 23.8158 121.844 19.5714 121.551C15.3269 121.257 11.265 119.71 7.8999 117.105C0.0357949 110.885 -1.79138 99.7889 1.88093 90.6471C5.55324 81.5053 15.4595 76.3071 24.7746 80.3581V80.5016C17.9853 78.8883 11.4468 79.5157 6.61006 85.1621C4.66542 87.6521 3.26648 90.5239 2.50415 93.5906C1.74182 96.6573 1.63323 99.8503 2.18543 102.962C2.64311 106.248 3.92224 109.366 5.9044 112.026C7.88657 114.687 10.5077 116.803 13.5248 118.18C23.6998 122.948 34.9138 117.23 41.2731 108.734C44.4893 104.142 46.5929 98.8642 47.4175 93.3181C48.9186 86.7012 48.8173 79.8212 47.1222 73.2515C45.427 66.6817 42.1871 60.6126 37.6724 55.5499C37.2963 55.0659 36.938 54.6177 36.5439 54.1696C36.1498 53.7215 35.9885 53.5781 35.7198 53.2554C35.4511 52.9328 35.4333 52.8432 35.487 52.7715H35.3258Z" fill="#EDE9E6"/>
<path fill-rule="evenodd" clip-rule="evenodd" d="M36.2215 47.6449C35.9653 48.074 35.7949 48.5489 35.7199 49.0431C35.5408 50.262 36.2394 50.8356 37.3322 51.0507C38.318 51.1403 39.3113 51.1042 40.288 50.9431C42.1444 50.8304 43.9927 50.6089 45.8232 50.2799C47.9702 49.893 50.0843 49.3416 52.1468 48.6307C56.6316 47.1307 60.4398 44.0886 62.895 40.0446C65.2532 35.6571 65.9527 30.5662 64.8655 25.7046C63.5578 19.0364 58.8823 13.3721 52.093 12.4938C49.1617 12.1094 46.1833 12.6416 43.5661 14.0174C42.8635 14.3953 42.2231 14.879 41.6673 15.4515C41.129 15.9206 40.6925 16.4949 40.3844 17.1392C40.0763 17.7835 39.9032 18.484 39.8759 19.1978C39.8759 19.0185 40.3059 18.5346 40.4134 18.3733C40.9633 17.5777 41.6556 16.891 42.4555 16.3477C43.5452 15.5862 44.7568 15.0163 46.0382 14.6628C46.7812 14.4578 47.5438 14.3315 48.3133 14.2863C49.9174 14.1676 51.5287 14.3874 53.0425 14.9316C54.525 15.4658 55.8839 16.2952 57.0372 17.3695C58.2473 18.4811 59.2431 19.8056 59.9751 21.2771C60.7719 22.8623 61.2929 24.5717 61.5156 26.332C62.1978 30.2744 61.448 34.3307 59.4018 37.7681C57.3043 40.8046 54.2016 43.0014 50.642 43.9702H50.4091C48.2795 44.5656 46.1046 44.9853 43.9065 45.225C42.9212 45.3505 41.9181 45.4222 40.9149 45.476C39.5549 45.3298 38.1903 45.7079 37.0993 46.5335C36.7702 46.8426 36.4813 47.1919 36.2395 47.5732L36.2215 47.6449Z" fill="#EDE9E6"/>
<path fill-rule="evenodd" clip-rule="evenodd" d="M35.075 52.0724C33.8031 53.6857 31.8685 56.0697 31.6535 56.4102C30.6325 57.8136 29.8794 59.3935 29.4322 61.0707C29.1602 62.2465 29.1176 63.4638 29.3068 64.6557C28.8124 62.7428 28.9635 60.72 29.7367 58.9019C30.176 57.6276 30.7212 56.3924 31.3668 55.2093C32.4951 53.957 33.5422 52.6338 34.5017 51.2478C34.6495 51.5396 34.8431 51.8059 35.075 52.0365V52.0724Z" fill="#EDE9E6"/>
<path fill-rule="evenodd" clip-rule="evenodd" d="M29.4323 61.0707C29.8795 59.3935 30.6326 57.8135 31.6536 56.4102C31.8685 56.0697 33.8032 53.6856 35.075 52.0724L35.2542 52.2875C35.4382 52.4428 35.636 52.5807 35.8453 52.6997C35.8453 53.5064 35.7379 54.2951 35.6483 54.9942C35.3258 57.5933 35.487 60.1386 35.2721 62.7557C35.3096 59.4723 35.7672 56.2074 36.6335 53.0403C37.0129 53.1412 37.4076 53.1716 37.7979 53.1299C39.254 55.0764 40.3909 57.2427 41.1657 59.5471C42.0562 63.001 41.6283 66.663 39.9655 69.8182C38.8191 72.1663 37.3142 74.2457 35.9707 76.4684C35.6124 77.0779 35.2542 77.6694 34.878 78.2609C33.8928 76.325 32.9792 74.3533 32.0835 72.3636C30.8249 69.9761 29.868 67.4411 29.2352 64.8171C29.2352 64.8171 29.2352 64.8171 29.2352 64.6916C29.046 63.4997 29.0885 62.2824 29.3606 61.1066L29.4323 61.0707Z" fill="#EDE9E6"/>
<path fill-rule="evenodd" clip-rule="evenodd" d="M38.3711 38.3238C37.5665 40.7949 37.1613 43.3788 37.1709 45.9778C36.7933 46.0119 36.4239 46.1089 36.0781 46.2647V46.0496V45.8882C36.1448 45.5928 36.1927 45.2935 36.2215 44.992C36.2215 44.5438 36.2215 44.0778 36.2215 43.6297C36.2215 42.8409 36.4544 42.0522 36.5798 41.2815C36.8498 39.6949 37.4362 38.1789 38.3041 36.8239C39.172 35.4689 40.3036 34.3026 41.6314 33.3944C41.7268 33.3247 41.8288 33.2647 41.9359 33.2152C40.2884 34.5772 39.0126 36.3348 38.2278 38.3238H38.3711Z" fill="#EDE9E6"/>
<path fill-rule="evenodd" clip-rule="evenodd" d="M39.3026 46.3901C41.2082 43.2871 43.3779 40.3545 45.7874 37.6248C45.7874 37.6248 45.7874 37.5172 45.7874 37.6248C43.3512 40.4569 40.3058 43.0023 38.2994 46.0854C37.9499 46.023 37.5921 46.023 37.2426 46.0854C37.2329 43.4864 37.6381 40.9026 38.4428 38.4314C39.2276 36.4424 40.5034 34.6848 42.1509 33.3227C43.1887 32.4431 44.3321 31.6964 45.5546 31.1C47.8475 29.9707 50.2838 29.3075 52.72 28.4113L54.6368 27.6942C54.2785 29.8452 53.7948 31.9783 53.3111 34.1114C52.8811 36.7839 52.1169 39.3916 51.0361 41.873C50.471 42.9829 49.6772 43.9603 48.7073 44.741C47.3595 45.7739 45.8276 46.5405 44.1931 46.9996C43.9065 46.9996 42.4017 47.4477 40.6104 47.8242C40.4346 47.4849 40.1978 47.181 39.9117 46.9279C39.7374 46.7634 39.5451 46.6191 39.3384 46.4977L39.3026 46.3901Z" fill="#EDE9E6"/>
<path fill-rule="evenodd" clip-rule="evenodd" d="M41.0403 56.0517C41.9335 57.5212 43.094 58.8101 44.4617 59.8518C45.2477 60.4077 46.119 60.8315 47.0413 61.1066C46.6387 61.0811 46.2412 61.0028 45.859 60.8736C43.0449 59.5787 40.8378 57.2482 39.6967 54.3668C39.4818 53.9366 39.1594 53.3989 38.9444 52.8432L39.1951 52.7536C40.0191 54.2593 40.8611 55.7829 40.9865 56.0517H41.0403Z" fill="#EDE9E6"/>
<path fill-rule="evenodd" clip-rule="evenodd" d="M20.4395 28.1423C20.762 30.7415 20.8515 33.3406 21.3889 35.9039C21.9977 39.2807 23.7965 42.3271 26.4585 44.49C25.2304 43.9289 24.1553 43.0806 23.3236 42.0164C22.1442 40.3263 21.2935 38.4289 20.8157 36.4237C20.4253 34.4834 20.257 32.5049 20.3141 30.5264C20.3141 29.6839 20.4395 28.8415 20.3141 27.9811C20.2334 27.586 20.1973 27.1832 20.2066 26.7801C20.2066 27.2462 20.2067 27.6942 20.35 28.1423H20.4395Z" fill="#EDE9E6"/>
<path fill-rule="evenodd" clip-rule="evenodd" d="M21.3889 35.9039C20.8515 33.3406 20.762 30.7415 20.4395 28.1423C20.4395 27.6942 20.3499 27.2462 20.2962 26.7801C20.2424 26.3141 20.2962 26.2961 20.2066 26.0631C22.1592 26.9235 24.076 27.8556 25.9749 28.8414C28.4174 29.8794 30.7123 31.2355 32.8 32.8746C33.727 33.7039 34.4713 34.7173 34.9854 35.8502C35.6646 37.4583 36.0411 39.178 36.0961 40.9229C36.0961 41.2994 36.0961 44.0061 36.0961 46.0496V46.2647C35.8194 46.4064 35.5608 46.5809 35.3258 46.7845C34.7346 46.1929 34.2331 45.6015 33.8748 45.2609C32.0639 43.6093 30.5862 41.6257 29.5218 39.4173C29.5218 39.4173 29.3605 39.4173 29.3964 39.4173C30.4296 42.0863 31.9823 44.5235 33.9643 46.5873C34.2264 46.884 34.4717 47.1951 34.6989 47.5194C34.6168 47.6323 34.5448 47.7523 34.4839 47.8779C31.7426 47.251 29.1224 46.1793 26.7272 44.7052L26.4764 44.508C23.8144 42.345 22.0157 39.2987 21.4068 35.9219L21.3889 35.9039Z" fill="#EDE9E6"/>
<path fill-rule="evenodd" clip-rule="evenodd" d="M10.0137 56.8404C10.0137 56.8404 10.0137 56.5895 10.1391 56.5537C10.9023 55.4728 11.7277 54.4373 12.6112 53.4526C13.8767 51.9408 15.3135 50.5814 16.8927 49.4016C17.9294 48.5597 19.0894 47.8826 20.3321 47.394C18.2248 48.8146 16.2891 50.4747 14.5638 52.3412C13.0411 53.7931 11.5364 55.2631 10.0853 56.8047L10.0137 56.8404Z" fill="#EDE9E6"/>
<path fill-rule="evenodd" clip-rule="evenodd" d="M31.2952 49.8676C29.88 50.2261 28.5006 50.6564 27.1034 51.0866C26.0612 51.556 24.9668 51.8989 23.8432 52.1082C23.8432 52.1082 23.8432 52.2158 23.8432 52.2158C26.369 51.8393 28.8231 50.7997 31.3848 50.4232L34.0898 50.0648C34.1557 50.4895 34.2888 50.9009 34.4839 51.2837C33.5244 52.6697 32.4773 53.9928 31.349 55.2451C30.6771 55.9984 29.9264 56.6775 29.1098 57.2706C26.2176 59.2112 22.6798 59.9385 19.2573 59.2962C16.7685 58.8234 14.3052 58.2251 11.8767 57.5037C11.2318 57.3424 10.5512 57.1811 9.90628 56.9839V56.8943C11.3573 55.3527 12.862 53.8829 14.3847 52.431C16.11 50.5644 18.0457 48.9042 20.153 47.4836L20.4575 47.2864C21.5558 46.6658 22.7811 46.3042 24.0402 46.2288C25.7308 46.1457 27.4215 46.3892 29.0202 46.9459C29.4143 47.0714 32.2268 48.2186 34.1077 48.9535V49.2582L31.3311 49.9214L31.2952 49.8676Z" fill="#EDE9E6"/>
<path fill-rule="evenodd" clip-rule="evenodd" d="M33.9464 46.5694C31.9644 44.5056 30.4117 42.0684 29.3784 39.3994C29.3784 39.3994 29.468 39.2918 29.5038 39.3994C30.5683 41.6077 32.0459 43.5914 33.8569 45.2429C34.2151 45.5835 34.7167 46.175 35.3079 46.7665C35.5428 46.5629 35.8014 46.3884 36.0781 46.2467C36.4239 46.0909 36.7933 45.9939 37.171 45.9599C37.5205 45.8975 37.8783 45.8975 38.2278 45.9599C40.2341 42.8409 43.2795 40.3315 45.7157 37.4993C45.7157 37.4993 45.8232 37.4993 45.7157 37.4993C43.3062 40.229 41.1366 43.1617 39.231 46.2647C39.4376 46.3861 39.6299 46.5304 39.8042 46.6949C40.0903 46.948 40.3272 47.2519 40.5029 47.5911C40.686 47.8966 40.819 48.2294 40.8969 48.577C41.0755 49.2221 41.0755 49.9036 40.8969 50.5487C44.3451 52.2844 47.9423 53.7062 51.6451 54.7969C47.9549 53.5422 44.0677 52.8431 40.5029 51.3195C40.4258 51.459 40.3358 51.5911 40.2341 51.7139C39.9447 52.0465 39.599 52.3256 39.213 52.5385L38.9623 52.6281C38.2665 52.9471 37.482 53.0167 36.7409 52.8252C35.8746 55.9923 35.4172 59.2573 35.3796 62.5406C35.3796 62.5406 35.3796 62.5406 35.3796 62.5406C35.5946 59.9235 35.3795 57.3782 35.7557 54.7791C35.8453 54.08 35.8811 53.2913 35.9527 52.4846C35.738 52.4308 35.5283 52.3588 35.3258 52.2696L35.1467 52.0545C34.9148 51.8239 34.7212 51.5576 34.5734 51.2658C34.3783 50.8829 34.2452 50.4715 34.1793 50.0469L31.4743 50.4054C28.9126 50.7818 26.4585 51.8215 23.9327 52.1979V52.0903C25.0563 51.8811 26.1509 51.538 27.193 51.0686C28.5903 50.6384 29.9696 50.2082 31.3848 49.8497L34.1614 49.1865V48.8817C34.2231 48.5203 34.3378 48.17 34.5017 47.8421C34.5627 47.7165 34.6346 47.5965 34.7167 47.4836C34.4895 47.1594 34.2443 46.8481 33.9823 46.5514L33.9464 46.5694Z" fill="#EDE9E6"/>
<path fill-rule="evenodd" clip-rule="evenodd" d="M37.5292 47.8958C37.1194 47.9385 36.74 48.1316 36.4642 48.4378C36.1884 48.744 36.0357 49.1416 36.0357 49.5539C36.0357 49.9661 36.1884 50.3637 36.4642 50.6699C36.74 50.9761 37.1194 51.1692 37.5292 51.2119C37.9389 51.1692 38.3184 50.9761 38.5942 50.6699C38.87 50.3637 39.0227 49.9661 39.0227 49.5539C39.0227 49.1416 38.87 48.744 38.5942 48.4378C38.3184 48.1316 37.9389 47.9385 37.5292 47.8958V47.8958Z" fill="#EDE9E6"/>
<path fill-rule="evenodd" clip-rule="evenodd" d="M34.2688 72.4353C34.3782 72.8197 34.4266 73.2189 34.4122 73.6183C34.4122 73.2956 34.4122 72.8834 34.4122 72.5249V71.3598C34.4122 69.2267 34.4122 67.2729 34.5555 65.1577C34.8072 64.0229 34.8918 62.8574 34.8063 61.6982C34.7021 61.8445 34.5677 61.9668 34.4122 62.0567C34.1972 62.2001 34.251 62.2718 34.0361 62.1642C33.0254 61.24 32.2879 60.0556 31.9043 58.7405C31.8188 57.5267 32.1471 56.3197 32.8358 55.3168C31.8863 56.9659 29.898 58.9019 30.3995 61.0349C30.2921 60.5689 31.9759 61.2679 32.1909 61.5727C32.5173 62.3932 32.6757 63.271 32.6567 64.1539C33.1045 66.9502 33.6778 69.6927 34.3585 72.4353H34.2688Z" fill="#EDE9E6"/>
<path fill-rule="evenodd" clip-rule="evenodd" d="M327.838 84.8394C327.429 84.8821 327.049 85.0752 326.773 85.3814C326.498 85.6876 326.345 86.0852 326.345 86.4975C326.345 86.9097 326.498 87.3074 326.773 87.6136C327.049 87.9198 327.429 88.1129 327.838 88.1556C328.248 88.1129 328.628 87.9198 328.903 87.6136C329.179 87.3074 329.332 86.9097 329.332 86.4975C329.332 86.0852 329.179 85.6876 328.903 85.3814C328.628 85.0752 328.248 84.8821 327.838 84.8394Z" fill="#EDE9E6"/>
</g>
<defs>
<clipPath id="clip0_36_266">
<rect width="396" height="212" fill="white" transform="matrix(-1 0 0 1 396 0)"/>
</clipPath>
</defs>
</svg>
