<svg width="283" height="64" viewBox="0 0 283 64" fill="none" 
    xmlns="http://www.w3.org/2000/svg">
    <path d="M85 14c-.4.9-.6 2-.8 3v.2c-1.3 3.3-3.6 6.6-5.6 6.6-1 0-1.4-1.3-1.7-3.5l-.6-4-.1-1.4-2.1-.3-2.1 4.7.2-3.6-2.2-.3c-.5 2-1.3 3.9-2.2 5.5a7 7 0 0 1-6.3 3.9h-.1c-2.1 0-4-.6-5.8-1.5v-1a36.1 36.1 0 0 0 11.8-9.2V13l-1.7-1.3a28.1 28.1 0 0 1-9.7 8l-.2.1c.2-6.1.6-12.4.9-15.2l-2.2-.2c-.3 3-.7 9.9-1 16.4l-1.5.4-.6 1.9 2 1.4-.1 7v.2h2.2v-6c1.8.8 3.8 1.3 5.9 1.3h.1c3.4 0 6.4-1.9 8-4.7l-.5 3.9 2.1.6 3.4-7.7.2 1.5c.2 1.7.8 5.4 4 5.4 2 0 3.8-1.5 5.2-3.6.2 1.7.6 3.2 1.4 4.3.8 1.2 2.1 2 3.7 2a4 4 0 0 0 3.8-2.3c1.1-2.3.6-5.8-1.3-8.4a10 10 0 0 0-1-1h5.2v3.3c-.1 6 .5 9 2 10.6.7.7 1.6 1.1 2.6 1.1h.1c4.2 0 7.3-6 8-8.4l-2.2-.6c-.6 2.3-3.3 6.8-5.8 6.8-.5 0-.8-.2-1-.4-1.4-1.4-1.6-5.9-1.6-9.2v-3.4a39 39 0 0 0 12.7-3l-.9-2c-3 1.4-7.2 2.4-11.6 2.8.1-2.8.4-5 .8-8.4l.2-2.7-2.2-.3-.3 2.7c-.3 2.4-.5 5.4-.7 8.5v.3s-6.3.4-10.8-.7zm5.8 11.4c-.4.8-1 1.1-1.7 1.1-.9 0-1.6-.4-2-1-1.1-1.7-1.2-5-.8-7.7l.2-1c1.2.6 2.5 1.6 3.2 2.6 1.6 2.1 1.8 4.7 1.1 6zm-52.2 3c-1.6 0-2.2-1.3-2.4-2.7 4.2-1.9 6-6.2 6-8.3 0-1.8-1.2-2.5-2.3-2.5-2.5 0-5.8 4.3-6 9.3l-2.1.2c-1 0-1.7-.2-2.1-.7-1.4-1.5-1.3-4.8-1.3-7.3v-1.2l-2-.7-5.5 8c-.1-4.2.2-9.2.7-13.3 1-4 1.9-7.9 1.3-8.7-.2-.3-.5-.5-1-.5l-.8.4a26 26 0 0 0-1.7 8.4c-.9 3.4-1.8 6.1-2.8 8.8l.2-.5c-2.3 5.4-6.5 10.9-8.2 11.2-.3-.5-.6-2.3-.3-7.4v-.5l.4-4 6-.8-.4-2.2-5.3.7.1-1c.3-2 .6-4.4.8-7.1l-2.2-.2c-.2 2.7-.5 5-.8 7l-.1 1.5L0 15l.2 2.3 6.3-.6-.3 3.6v.6c-.4 4.7-.3 7.9.9 9.1.3.4.8.6 1.3.6 1.6 0 3.5-1.5 5.8-4.5 1.7-2.3 3.3-4.9 4.5-7.7v-.2c0 3.1 0 6 .2 7.8l2 .5 3-4.4 2.3-3.2c0 2.4.4 4.9 1.9 6.4a5 5 0 0 0 3.7 1.5l2.4-.3H34c.5 2.7 2.1 4.2 4.5 4.2 4.2 0 6.5-4.2 7.2-7.8l-2.2-.4c0 .2-1.2 6-5 6zm1.3-11.2v.2c0 1-1 4.1-3.7 5.8.5-3.5 2.8-6 3.7-6z"></path>
</svg>