<svg width="582" height="138" viewBox="0 0 582 138" fill="none" xmlns="http://www.w3.org/2000/svg">
<g clip-path="url(#clip0_36_240)">
<path d="M162.88 49.6633C160.237 49.0431 157.937 48.4692 155.614 47.9534C142.102 44.9682 128.572 42.0469 114.91 39.8384C102.875 37.8677 90.8118 36.123 78.6731 34.8478C69.0779 33.8334 59.4712 32.8886 49.8124 33.3118C40.2694 33.7349 30.9756 35.4042 22.4697 40.0993C15.8992 43.7278 10.2325 48.3649 6.58796 55.0771C0.898099 65.5106 1.47751 75.7586 8.10603 85.6066C10.0424 88.4359 12.6558 90.7354 15.708 92.2956C16.1541 92.5332 16.5887 92.7999 17.0232 93.0607C17.058 93.0607 17.058 93.1593 17.1217 93.3796C15.7346 93.0361 14.4052 92.4912 13.1759 91.7623C9.19475 89.4891 5.96135 86.1054 3.8705 82.0244C-2.16122 70.4317 -1.02556 59.3085 6.41993 48.8228C12.2662 40.5978 20.3549 35.2593 29.8225 32.0133C36.6626 29.7112 43.8089 28.4471 51.0234 28.2631C60.2303 27.9617 69.385 28.6109 78.5398 29.5499C103.849 32.1409 128.856 36.5519 153.673 42.0932C158.041 43.0728 162.404 44.1104 166.756 45.1595C167.266 45.3185 167.806 45.3588 168.334 45.2774C168.862 45.196 169.365 44.9951 169.804 44.69C178.935 38.4937 189.034 34.5754 199.684 31.8974C211.406 28.9529 223.318 28.1936 235.324 28.7094C249.352 29.2891 262.985 32.1177 276.37 36.2853C285.264 39.056 294.019 42.1802 302.6 45.7971C303.103 46.0358 303.655 46.1543 304.212 46.1433C304.769 46.1322 305.316 45.9919 305.81 45.7334C320.794 38.7777 335.995 32.3495 351.416 26.4488C369.453 19.5743 387.745 13.494 406.553 9.05973C417.755 6.42431 429.061 4.28545 440.472 2.64314C453.842 0.709809 467.343 -0.170068 480.851 0.0116047C491.119 0.148221 501.364 1.01795 511.508 2.61417C519.257 3.73375 526.92 5.37592 534.447 7.52948C544.054 10.4277 553.278 14.1605 561.506 20.0497C567.816 24.565 573.222 29.9035 576.942 36.8128C582.069 46.3362 583.251 56.3697 580.696 66.8379C577.602 79.474 570.672 89.7046 560.811 98.034C554.582 103.291 547.484 107.001 539.865 109.847C533.795 112.074 527.551 113.792 521.196 114.983C520.427 115.131 519.704 115.461 519.087 115.945C510.628 122.802 500.992 127.369 490.696 130.627C481.904 133.313 472.876 135.157 463.735 136.134C455.276 137.119 446.788 137.617 438.276 137.872C429.417 138.151 420.569 137.872 411.739 137.374C400.13 136.671 388.564 135.387 377.084 133.525C351.311 129.468 326.095 123.092 301.146 115.556C294.965 113.682 288.785 111.75 282.604 109.76C281.493 109.359 280.269 109.407 279.191 109.893C267.476 114.973 255.46 119.327 243.21 122.929C232.69 125.97 221.958 128.225 211.104 129.676C203.728 130.668 196.329 131.311 188.878 130.981C180.158 130.592 171.611 129.305 163.523 125.764C159.213 123.985 155.266 121.431 151.876 118.229C150.868 117.249 149.976 117.145 148.713 117.51C135.285 121.319 121.637 124.307 107.847 126.459C99.7754 127.752 91.623 128.621 83.4475 128.239C76.0194 127.891 68.7882 126.57 62.0091 123.434C53.8973 119.695 47.373 114.16 43.1491 106.155C38.8324 97.9819 38.3515 89.5655 41.9903 81.0333C46.417 70.5998 54.355 63.7079 64.6454 59.3838C70.7235 56.8334 77.155 55.7843 83.6792 55.1931C91.1827 54.5149 98.6513 55.0481 106.103 55.8075C120.395 57.2682 134.573 59.4321 148.638 62.2994C150.799 62.7399 150.799 62.7109 152.114 60.9662C154.906 57.1617 158.151 53.7124 161.779 50.6951C162.016 50.4458 162.3 50.1734 162.88 49.6633ZM460.665 89.1134L460.722 89.2989C460.349 89.4767 459.961 89.6241 459.564 89.7394C455.276 90.5567 451.011 91.5363 446.695 92.1217C440.234 93.0725 433.688 93.3155 427.174 92.8463C421.751 92.4057 416.31 92.058 410.951 91.287C398.364 89.4017 385.995 86.2737 374.024 81.9491C367.234 79.5436 360.559 76.8309 353.843 74.2283C352.899 73.8631 352.105 73.6893 351.114 74.2283C342.284 78.8654 333.425 83.5025 324.577 88.1396C324.238 88.3666 323.917 88.6184 323.615 88.8931C324.195 89.0844 324.56 89.2293 324.936 89.3279C331.188 90.9682 337.434 92.6318 343.704 94.2258C361.237 98.6948 378.886 102.654 396.685 105.911C411.246 108.578 425.871 110.867 440.623 112.189C449.146 112.954 457.686 113.667 466.233 114.102C473.655 114.484 481.095 114.531 488.523 114.571C497.773 114.693 507.019 114.124 516.184 112.867C517.202 112.761 518.153 112.309 518.878 111.586C520.443 110.021 522.135 108.572 523.583 106.908C532.645 96.4748 537.762 84.5401 536.846 70.4723C536.349 62.75 533.26 55.4218 528.08 49.6749C524.109 45.1937 519.238 41.601 513.785 39.1313C504.764 34.9231 495.18 32.9871 485.29 32.5234C480.245 32.2916 475.19 32.3729 470.155 32.7669C463.31 33.2714 456.499 34.1616 449.754 35.4332C435.223 38.3014 420.985 42.4962 407.219 47.965C390.874 54.37 375.091 61.9748 359.475 69.9564C359.139 70.1303 358.821 70.3505 358.317 70.6404C358.745 70.8896 359 71.0809 359.29 71.22C374.268 77.6714 389.53 83.2707 405.469 86.8702C414.256 88.9092 423.199 90.2006 432.204 90.7306C439.4 91.1099 446.615 90.8675 453.769 90.0061C456.087 89.7568 458.376 89.4206 460.665 89.1134ZM524.313 111.14L524.47 111.389C526.388 110.925 528.311 110.502 530.212 109.992C539.384 107.546 548.098 104.027 555.81 98.3992C566.715 90.4524 574.392 80.1406 577.828 66.9713C580.592 56.4451 579.393 46.3652 573.842 36.9113C570.296 30.8715 565.365 26.1416 559.669 22.1769C551.754 16.6588 542.936 13.0882 533.729 10.4393C523.178 7.40197 512.366 5.69784 501.45 4.6429C492.42 3.70189 483.335 3.41133 474.263 3.77344C467.351 4.10384 460.427 4.38786 453.543 5.08343C443.838 6.06881 434.226 7.76135 424.66 9.72052C412.027 12.2377 399.539 15.4381 387.253 19.3077C361.642 27.4226 336.843 37.6532 312.398 48.8054C312.038 49.0043 311.691 49.227 311.361 49.472C311.789 49.6981 312.027 49.843 312.276 49.9589C324.566 55.564 336.861 61.1459 349.127 66.7974C349.74 67.1233 350.426 67.2865 351.12 67.2713C351.814 67.2561 352.492 67.063 353.09 66.7104C366.643 59.6621 380.526 53.3382 394.646 47.5244C412.706 40.0877 431.236 34.3261 450.542 31.1903C460.731 29.4887 471.056 28.7301 481.384 28.9239C487.289 29.048 493.167 29.7489 498.935 31.0164C506.282 32.651 513.391 34.9347 519.794 39.0096C525.42 42.5859 530.304 46.9158 533.891 52.6079C539.685 61.7661 541.087 71.7359 539.181 82.2273C537.275 92.7187 532.448 101.935 525.35 109.899C525.003 110.305 524.673 110.722 524.313 111.134V111.14ZM147.473 113.754C147.309 113.412 147.127 113.079 146.928 112.757C141.412 104.99 139.836 96.3183 140.995 87.0209C141.813 80.9882 143.678 75.1446 146.505 69.7535C146.772 69.2261 147.004 68.6754 147.328 67.9624C146.343 67.7016 145.59 67.4755 144.837 67.3075C130.699 64.218 116.486 61.5749 102.093 60.0156C94.9836 59.2447 87.8626 58.6999 80.701 59.436C74.9069 60.0156 69.2344 61.059 63.898 63.3891C56.0527 66.8032 49.5285 71.8112 45.3161 79.4451C40.9299 87.3977 40.507 95.5532 44.4528 103.79C47.1162 109.285 51.1889 113.975 56.2555 117.382C64.037 122.732 72.7283 124.993 82.0569 125.399C89.4876 125.688 96.9281 125.191 104.254 123.915C118.349 121.595 132.283 118.383 145.972 114.299C146.465 114.154 146.922 113.962 147.473 113.754ZM512.007 116.652L511.908 116.414C511.592 116.394 511.274 116.394 510.958 116.414C503.234 117.305 495.463 117.714 487.688 117.637C478.997 117.574 470.306 117.342 461.661 117.058C452.755 116.756 443.885 116.003 435.008 115.058C422.311 113.702 409.676 111.932 397.103 109.748C380.56 106.891 364.134 103.43 347.812 99.4831C338.222 97.1646 328.691 94.6721 319.102 92.2608C318.18 92.0232 317.329 91.7913 316.326 92.2898C308.916 95.9821 301.464 99.6048 294.03 103.257C293.648 103.484 293.279 103.731 292.924 103.998C293.141 104.119 293.366 104.228 293.596 104.323C295.537 104.949 297.478 105.581 299.43 106.178C323.076 113.458 346.89 120.089 371.18 124.877C381.922 127.004 392.711 128.807 403.586 130.094C412.428 131.143 421.311 131.862 430.239 132.111C442.894 132.464 455.537 132.291 468.133 130.812C475.354 130.036 482.497 128.661 489.49 126.703C496.93 124.547 504.08 121.706 510.674 117.574C511.137 117.272 511.572 116.948 512.018 116.646L512.007 116.652ZM297.009 49.6865C296.319 49.3677 295.85 49.1069 295.415 48.9562C286.408 45.3577 277.224 42.2197 267.899 39.5544C257.008 36.3438 245.792 34.3645 234.461 33.6537C223.04 33.0103 211.672 33.5088 200.466 36.1288C191.984 38.1169 183.767 40.8354 176.131 45.1479C175.36 45.5827 174.613 46.058 173.483 46.7361C174.537 47.0202 175.175 47.1941 175.801 47.3564C182.226 49.0083 188.687 50.5386 195.072 52.3297C214.618 57.813 234.144 63.3582 253.651 68.9652C254.232 69.1615 254.846 69.2406 255.457 69.1978C256.069 69.155 256.666 68.9912 257.214 68.716C269.845 62.6607 282.492 56.6325 295.154 50.6313C295.728 50.3705 296.261 50.0749 297.009 49.6865ZM154.472 115.991C154.918 116.448 155.394 116.874 155.898 117.266C157.929 118.71 160.038 120.044 162.213 121.26C170.209 125.318 178.848 126.767 187.708 127.109C197.337 127.48 206.828 126.228 216.29 124.529C235.312 121.109 253.506 114.994 271.224 107.389C271.613 107.221 271.972 106.984 272.546 106.665C271.908 106.398 271.508 106.207 271.097 106.085C255.928 101.008 240.765 95.9222 225.607 90.8291C224.898 90.5763 224.145 90.4691 223.393 90.5139C222.642 90.5588 221.907 90.7547 221.233 91.09C200.079 100.488 178.372 108.587 156.234 115.342C155.741 115.481 155.243 115.707 154.495 115.991H154.472ZM215.96 87.7339C215.154 87.4324 214.697 87.2296 214.222 87.0789C203.126 83.601 192.076 80.0189 180.923 76.7498C171.571 74.0081 162.103 71.6489 152.682 69.1507C150.944 68.6928 150.868 68.7739 150.011 70.3505C147.93 74.1314 146.332 78.1585 145.254 82.3374C143.701 88.4352 143.4 94.5446 144.964 100.683C145.946 104.663 147.759 108.391 150.283 111.621C151.164 112.734 151.175 112.728 152.566 112.305L153.209 112.096C174.12 105.405 194.627 97.5106 214.627 88.4526C214.975 88.2903 215.311 88.0932 215.983 87.7339H215.96ZM263.553 71.8344C265.645 72.4488 267.325 72.9531 269.005 73.4342C283.68 77.6153 298.343 81.8312 312.995 86.0819C313.577 86.2685 314.192 86.3304 314.8 86.2635C315.408 86.1966 315.995 86.0024 316.523 85.6936C325.551 80.9347 334.618 76.2455 343.663 71.5214C344.086 71.3012 344.468 71.0171 345.013 70.6693C344.573 70.4201 344.347 70.2636 344.098 70.1535C331.389 64.5349 318.686 58.9143 305.989 53.2918C305.443 53.016 304.837 52.8766 304.225 52.8857C303.612 52.8948 303.011 53.052 302.472 53.344C290.088 59.2486 277.691 65.1261 265.28 70.9766C264.828 71.162 264.393 71.4055 263.576 71.8344H263.553ZM248.216 72.8778L248.112 72.4894C247.358 72.2576 246.605 72.0025 245.846 71.7938C228.191 66.9017 210.548 61.94 192.87 57.1522C184.938 54.9902 176.93 53.0948 168.958 51.0776C168.536 50.9186 168.08 50.8697 167.634 50.9356C167.188 51.0016 166.766 51.1801 166.408 51.4544C162.927 54.1045 159.724 57.1012 156.848 60.3982C156.089 61.2966 155.382 62.2356 154.466 63.3891C155.515 63.6557 156.263 63.8528 157.016 64.0325C165.458 66.0439 173.958 67.8233 182.325 70.1129C196.491 73.9907 210.577 78.1699 224.674 82.2853C225.33 82.5228 226.027 82.6261 226.724 82.5893C227.421 82.5525 228.103 82.3762 228.73 82.0708C234.669 79.2364 240.655 76.4947 246.623 73.7124C247.179 73.4574 247.712 73.156 248.239 72.8778H248.216ZM308.736 89.5249C307.629 89.1946 306.934 88.9453 306.227 88.783C301.748 87.5542 297.258 86.3601 292.785 85.0965C281.328 81.8699 269.878 78.6181 258.437 75.3412C257.469 75.0073 256.41 75.0613 255.482 75.4919C248.963 78.5408 242.422 81.5492 235.892 84.5749C235.467 84.8029 235.055 85.0545 234.658 85.3284C235.237 85.5602 235.614 85.7225 235.984 85.8443C251.679 90.9064 267.375 95.9705 283.074 101.037C283.545 101.205 284.046 101.272 284.545 101.235C285.044 101.198 285.529 101.058 285.971 100.822C293.032 97.3442 300.105 93.8664 307.189 90.3886C307.629 90.2147 308 89.9655 308.759 89.5249H308.736Z" fill="#8C6A86" fill-opacity="0.1"/>
</g>
<defs>
<clipPath id="clip0_36_240">
<rect width="582" height="138" fill="white"/>
</clipPath>
</defs>
</svg>
